<svg xmlns="http://www.w3.org/2000/svg" viewBox="0 0 228.21 234.54"><defs><style>.cls-1,.cls-5{fill:#3b464e;}.cls-1{stroke:#000;stroke-miterlimit:10;}.cls-2{fill:#fff;}.cls-3{fill:#ddd;}.cls-4{fill:#1d1d1b;}.cls-6{fill:#ff5a5f;fill-rule:evenodd;}</style></defs><title>Fichier 8</title><g id="Calque_2" data-name="Calque 2"><g id="Calque_1-2" data-name="Calque 1"><path class="cls-1" d="M72.59,109.28c-14.23,2.13-20.6.59-20.6.59l2.43,7.72a94.78,94.78,0,0,0,25.79-1.66c5.88-1.17,14.09-2.83,19.75-5.55A4,4,0,0,0,96.87,103,122.22,122.22,0,0,1,72.59,109.28Z"/><path class="cls-2" d="M31.84,75.29l.4,14.16a5.87,5.87,0,0,1,4.34,1c2,1.51,2.8,2.61,2,4.6s-1.62,3.24-3.35,4-2.8,1.4-2.8,1.4l-.22,2.54a16.56,16.56,0,0,1,5.45-.22,6.91,6.91,0,0,1,4.23,2.43l1.39-3a7.78,7.78,0,0,1-1.62-5.55,25.81,25.81,0,0,1,.7-4.53l.11-16.55s-10.77-.41-10.66-.33Zm.62,44.07c-.11-.11-.33,6.43-.62,10.37s-.48,5.63-.48,5.63a5.29,5.29,0,0,0,2.9,2.09,6.26,6.26,0,0,0,4-.29,17.75,17.75,0,0,0,2-1l2.5-.52a36.56,36.56,0,0,0,.33-4.82,59.89,59.89,0,0,0-.81-9c-.4-2.1-.7-4-.7-4a9.33,9.33,0,0,1-4.85,2.2A7.66,7.66,0,0,1,32.46,119.36Z"/><path class="cls-3" d="M38.75,94.6c0,.18-.11.33-.14.48-.81,2-1.62,3.24-3.35,4s-2.8,1.4-2.8,1.4l-.22,2.54a16.56,16.56,0,0,1,5.45-.22,6.91,6.91,0,0,1,4.23,2.43l1.39-3a7.78,7.78,0,0,1-1.62-5.55,25.81,25.81,0,0,1,.7-4.53l0-1.73c-.4.59-.81,1.25-1.21,2-2.28,4.16.33,9.82.33,9.82a5.19,5.19,0,0,0-2.28-.92,12.12,12.12,0,0,0-4.64.3s-.11.11,1.66-.81,2.76-1,3-3.31a7.28,7.28,0,0,0-.52-2.87Z"/><path class="cls-3" d="M32.46,119.36a15.54,15.54,0,0,0-.18,2.13,26.82,26.82,0,0,0,5.48,0A10.89,10.89,0,0,0,42,119.91c-.22-1.22-.33-2.06-.33-2.06a9.33,9.33,0,0,1-4.85,2.2A7.66,7.66,0,0,1,32.46,119.36Z"/><path class="cls-3" d="M32,80.51A88.22,88.22,0,0,1,42.5,79.22v-3.6s-10.77-.41-10.66-.33Z"/><path class="cls-2" d="M32.13,123.25l.44-3.56a10.36,10.36,0,0,0,4.82.18,7.45,7.45,0,0,0,4.19-2.17l1.11,6s2.39-.74,4.19-1.25,2.39-.77,2.39-.77a2.4,2.4,0,0,0,2.28,1.87c1.92.11,3.39-.81,4.93-4a19.36,19.36,0,0,0,1.88-9.38c-.19-3.06-1.11-3.61-1.77-4.09a3.32,3.32,0,0,0-2.39-.33,2.29,2.29,0,0,0-1,.74s-2.65-3.28-2.61-6.59.4-4.89,1.73-6.69,2.32-3.79,2-5.3-2.47-1.58-4.49-1.47-3.13.59-4.71,2.58-2.91,3.45-3.24,5.48a18.08,18.08,0,0,0,.44,6.47,7.29,7.29,0,0,0,.81,1.73l-1.43,2.5s-.85-2.8-4.82-2.39-4.38.26-4.38.26l-.07-2.54s4.67-1.91,5.85-4.08a4.25,4.25,0,0,0-1.58-6c-2.32-1.17-4.12-1.39-6-.37s-6.33,3.72-7.95,4.82-2.86,2.73-2.5,3.79,2.21,2.06,3.75,3a11,11,0,0,1,2.43,2,6.87,6.87,0,0,0-1.58,3.31,10.6,10.6,0,0,0,.66,4.78,4.79,4.79,0,0,0-1.69,3.28c-.11,2.06.52,5.22,2.39,6.14S32.17,123.14,32.13,123.25Z"/><path class="cls-4" d="M31.51,31.15c0-.19.11-2.39.07-3.83s-.33-1.51,1.25-1.76a11.69,11.69,0,0,1,1.73-.08c0,1.29.07,2.43.22,1.58.07-.47.11-1,.15-1.58,1.28,0,2.65.19,3.56.26a27.51,27.51,0,0,0,3.43.07c1-.07,1.1-.07,1.1,1v4.79S31.47,31.29,31.51,31.15Z"/><path class="cls-2" d="M32.32,31.81c0-.15.11-2.35.07-3.79s-.3-1.51,1.1-1.73a4.31,4.31,0,0,1,.77-.07c0,1.51.11,3.35.45,2.32a13.72,13.72,0,0,0,.44-2.32c1.17,0,2.43.18,3.2.22l1.54.11.19,3.93.36-3.93a6.63,6.63,0,0,0,.89,0c.88-.07,1-.07,1,1v4.75S32.32,32,32.32,31.81Z"/><path class="cls-4" d="M1.53,78.05c1.36.07,22.88.55,30.05.4s20.27.15,28.21.08,12.33-.15,13.21-.08,1.51.15,1.36-2c0-.41-.07-1.22-.07-2.36A27,27,0,0,1,70.94,74c-1.33-.18,1.84-.44,3.31-.55-.07-5.66-.11-17.25-.07-23.1.07-7.39.07-15.93.07-17.36s.88-2-6.73-2.13-29.5-.41-39.07.07S2.78,31.07,1.53,31s-1.66.81-1.4,2.47c.11.84.18,4.41.18,8.42a19.1,19.1,0,0,1,2.76.37c1.14.26-1.21.29-2.76.29,0,4-.07,8.28-.18,10.82C-.13,58.55.06,70.58.2,73.74S.2,78,1.53,78.05Z"/><path class="cls-4" d="M31.1,100.3c1.18,0,3.09-1,5-2.54S39,94,37.91,92.32,35,89.85,32.46,90.11s-3.75,1.66-7.21,3.64-4.6,3.09-4.52,4.12,1,1.73,2.61,2.62A21.28,21.28,0,0,1,27,103.32s-1.25.55-1.25.4A22.78,22.78,0,0,0,21,100.23c-2.32-1.25-2-3.72.62-5.45a93.2,93.2,0,0,1,9.12-5.7c2.39-1.1,6.18,0,8,2.43s.69,5-2.32,7.21-5.85,2.87-7.14,1.84"/><path class="cls-4" d="M25,112a23.79,23.79,0,0,1-.7-5.41c.07-2.28.7-3.72,3.38-3.94s7.06-.4,9.56-.66a5.28,5.28,0,0,1,5.37,3.31c1,2.13-.51,5.33-.84,5.74s-1.1-.48-1.1-.48,1.65-3,.88-4.67-2.61-2.83-6.26-2.47-6.58.48-7.76.56a2.22,2.22,0,0,0-2.06,2.39,10.35,10.35,0,0,0,.26,3.49c.22.7.48,1.33.48,1.33Z"/><path class="cls-4" d="M32,123.88c0-.15-5.77-1.88-7.21-3s-1.36-4.56-1.5-6.36,1-3,3.9-4.27A21.4,21.4,0,0,1,37,108.69a7.13,7.13,0,0,1,6.36,4.3c1,2.61-1,5.3-3.71,6.88s-6.74.7-8.61-.18a4.65,4.65,0,0,1-2.47-2.61s3.57,2.31,6.4,2.39a7.83,7.83,0,0,0,6.59-3c1.1-1.65,1-4-.55-5a13.63,13.63,0,0,0-8.94-1.36c-3.5.81-5.7,1.36-6.81,2.46s-.88,2.13-.66,3.79.48,2.8,1.77,3.71,5.84,2.07,5.84,2.07S32,124.06,32,123.88Z"/><path class="cls-4" d="M31.87,119.54c0-.07-.22,5.85-.44,9.82A38.8,38.8,0,0,1,30.7,135c-.08.7,2,3.38,6.1,2.83s4.82-1.51,4.82-1.51-2.83.48-5.3.74a4,4,0,0,1-4.19-2.24c-.33-.92-.07-4.27.41-7.51a64.59,64.59,0,0,0,.47-7.61A6.36,6.36,0,0,1,31.87,119.54Z"/><path class="cls-4" d="M42,117.26a66.73,66.73,0,0,1,1.33,10.26c.07,4.23.25,7.84-.08,8.57s-2.68.89-4.82.63a12.31,12.31,0,0,1-3.56-.88s3.09-.3,5-.3,2.76-.33,2.68-1.43.23-5.78-.18-9.49A42.4,42.4,0,0,0,41.14,118S42,117.41,42,117.26Z"/><path class="cls-4" d="M31.54,78.19c.15-.07.15,5.37.11,7.73s.08,3.71.08,3.71l1-.07s.07-3-.11-6-.15-5.37-.15-5.37S31.4,78.27,31.54,78.19Z"/><path class="cls-4" d="M42.17,78.19s-.29,6.92-.36,10.3-.26,6.85-.26,6.85l1.29-2.54s.07-6.44,0-9.31A45.44,45.44,0,0,1,43,78Z"/><path class="cls-4" d="M41.47,105.05a5,5,0,0,1,.48-1.73,4.32,4.32,0,0,0,.37-1.18s-2.5-6.18,0-10.59,6.43-6.33,9.93-5.78,3.16,4.19.77,7.28a8.59,8.59,0,0,0-1.36,9c1.14,2.46,3,5.44,2.83,9.45a8.71,8.71,0,0,1-3.34,6.26s3.2-4.86,2.17-9.2-3.43-5.3-3.57-9,1-5.22,2.68-7.76,1.73-4.75-.95-5-6.26,1.84-7.91,5.08a10.32,10.32,0,0,0-1,8.17,6.05,6.05,0,0,0,3.57,3.93c.62.19-.81.26-1.66-.07a5.67,5.67,0,0,1-1.36-.7l-1.1,2.91S41.55,105,41.47,105.05Z"/><path class="cls-4" d="M42.73,124.14a32,32,0,0,0,5.14-1.55c3-1.1,3.57-2.35,3.57-2.35a51.61,51.61,0,0,1-5,1.76,23.56,23.56,0,0,1-3.94.7Z"/><path class="cls-4" d="M53.28,105.6A3.19,3.19,0,0,1,58.06,107c1.88,3.53.26,11.48-2.39,14.86s-6.58,2.17-6.65-.25l.84-.37s.19,1.84,2.83,1.4,4.27-5.26,5-8.61.33-5.56-1-7.17-3.42,0-3.42,0S53.28,105.49,53.28,105.6Z"/><path class="cls-4" d="M32,100.63,31.91,103H33l-.19-2.5S32.2,100.74,32,100.63Z"/><path class="cls-2" d="M2.23,77.05c1.32.11,22.43.56,29.46.41s19.86.15,27.66.07,12.07-.14,12.95-.07,1.47.15,1.32-1.91c0-.19,0-.48-.07-.89a25.5,25.5,0,0,1-5.22-.7c-2.17-.62,2.61-.92,5.18-1-.07-5.33-.11-16.77-.07-22.47,0-3.61.07-7.54.07-10.67l-8.71-.37,8.71-.25V36.89c-.92,0-2.06-.11-3-.23-1.4-.18,1.06-.29,3-.33V33.87c0-1.36.89-1.91-6.62-2.06s-28.91-.37-38.25.07S3.48,32,2.23,32s-1.59.77-1.4,2.35c.11.74.14,3.57.18,6.95a10.73,10.73,0,0,1,3.17,1c1.32.66-1.22.85-3.17.85,0,.88,0,1.76,0,2.64l6.85.22L1,46.45c0,2.68-.07,5.22-.14,6.91C.64,58,.72,68.3.86,72.16l12.92.55H.9V73C1.05,76,.9,77,2.23,77.05Z"/><path class="cls-5" d="M37.5,73.3c.81.11,1.44.63,1.36,1.11s-.81.8-1.65.69-1.44-.62-1.36-1.14S36.66,73.19,37.5,73.3Z"/><path class="cls-5" d="M37.35,33.21c.81-.3,1.59-.11,1.73.37s-.33,1.06-1.14,1.32-1.54.11-1.73-.37S36.58,33.46,37.35,33.21Z"/><path d="M111.25,211.2c.09-.68.19-1.44.28-2.22a4.2,4.2,0,0,0-.48-.28,4,4,0,0,1-2.35-3.37,9,9,0,0,1,1-5.36c-.3-.19-.59-.38-.88-.55a78.34,78.34,0,0,1-16.19-13,11.89,11.89,0,0,1-1.54-2.11,5.46,5.46,0,0,1-.54-4.07,18.54,18.54,0,0,1,1.94-5,92.83,92.83,0,0,1,7.19-11.11A150.94,150.94,0,0,1,111.06,150c1.62-1.74,3.36-3.38,5.1-5a4.26,4.26,0,0,1,2.86-1.16c2.54-.07,5.9,3.25,4.42,6.48a14.52,14.52,0,0,1-1.83,3.05c-1.89,2.39-3.87,4.71-5.83,7l-14.23,16.89c-.34.4-.7.78-1.07,1.16a1,1,0,0,0-.07,1.63,12.85,12.85,0,0,0,1.4,1.26L113,189.89c1.14.87,2.29,1.73,3.49,2.63l.6-.36a7.43,7.43,0,0,1,6.87-.36,5,5,0,0,1,3,3.77c.07.31.15.62.22.92,0,0,0,.06.08.13,4.17,1.16,7.55,3.67,10.7,6.56.49.45.91,1,1.42,1.4a4,4,0,0,1,1.32,3.9,18.32,18.32,0,0,1-.87,3.56,28.7,28.7,0,0,1-5.24,8.8A37.31,37.31,0,0,1,117,233a31.27,31.27,0,0,1-10.34,1.56,23.76,23.76,0,0,1-3.76-.41A5.58,5.58,0,0,1,99,231.67a3.26,3.26,0,0,1-.53-1.23,13.55,13.55,0,0,1,.3-5.63,19.2,19.2,0,0,1,7.81-10.75C108,213,109.59,212.2,111.25,211.2Zm1.17-.3,1.48-.37a15.9,15.9,0,0,1,7.9-.12,8.14,8.14,0,0,1,2.06,1,1.84,1.84,0,0,1,.59.84c.13.3-.15.55-.47.45a1.44,1.44,0,0,1-.37-.19,9.6,9.6,0,0,0-4.82-1.27,18.82,18.82,0,0,0-12.14,4.27,18.26,18.26,0,0,0-6.67,9.34,13.89,13.89,0,0,0-.43,5.52,2.23,2.23,0,0,0,1.16,1.75,9.62,9.62,0,0,0,4.62,1.21,30.24,30.24,0,0,0,11.49-1.57,36.38,36.38,0,0,0,19.87-16,18.68,18.68,0,0,0,2.89-8.27,1.79,1.79,0,0,0-.54-1.6c-.71-.68-1.36-1.42-2.08-2.08a26.37,26.37,0,0,0-8.52-5.69l-1.07-.38c-.84,3.45-1,3.8-2.11,3.93.09-.33.16-.62.24-.91a11.08,11.08,0,0,0,.5-4.36,4.32,4.32,0,0,0-3.33-3.88,7.15,7.15,0,0,0-3.84,0,13.72,13.72,0,0,0-1.5.64c.44.39.8.68,1.12,1a3.33,3.33,0,0,1,1,3.79,8.45,8.45,0,0,1-3.79,4.21,1.33,1.33,0,0,1-1,.09c-.83-.27-1.63-.62-2.43-1-.5-.22-1-.49-1.46-.73a7,7,0,0,0-.84,4.86,2.82,2.82,0,0,0,3.55,2.39,7.12,7.12,0,0,0,2.71-1.1,4.81,4.81,0,0,1,.64-.31c-.22,1.53-1.36,2.26-4.32,2.82C112.5,209.7,112.46,210.21,112.42,210.9Zm2.87-9.73a8,8,0,0,0,2.84-3.15,5.28,5.28,0,0,0,.3-1.32,1.59,1.59,0,0,0-.75-1.68q-6.74-5-13.41-10.15c-1.53-1.17-3-2.44-4.48-3.64a2.42,2.42,0,0,1-.44-3.14,13,13,0,0,1,1.05-1.57q5.75-6.92,11.51-13.81c2.7-3.23,5.46-6.4,8.15-9.63a16.38,16.38,0,0,0,1.84-2.81,3.45,3.45,0,0,0,.41-1.9,3.13,3.13,0,0,0-5.13-2.09,20.79,20.79,0,0,0-1.72,1.54c-.92.91-1.83,1.83-2.72,2.78a162.12,162.12,0,0,0-14.69,18.65c-1.5,2.19-2.87,4.49-4.16,6.81a25,25,0,0,0-1.67,4.07,4.52,4.52,0,0,0,1,4.59c.52.62,1.09,1.2,1.66,1.76A78.18,78.18,0,0,0,115.29,201.17Z"/><path class="cls-2" d="M112.42,210.9c0-.69.08-1.2.11-1.69,3-.56,4.1-1.29,4.32-2.82a4.81,4.81,0,0,0-.64.31,7.12,7.12,0,0,1-2.71,1.1,2.82,2.82,0,0,1-3.55-2.39,7,7,0,0,1,.84-4.86c.48.24,1,.51,1.46.73.8.34,1.6.69,2.43,1a1.33,1.33,0,0,0,1-.09,8.45,8.45,0,0,0,3.79-4.21,3.33,3.33,0,0,0-1-3.79c-.32-.31-.68-.6-1.12-1a13.72,13.72,0,0,1,1.5-.64,7.15,7.15,0,0,1,3.84,0,4.32,4.32,0,0,1,3.33,3.88,11.08,11.08,0,0,1-.5,4.36c-.08.29-.15.58-.24.91,1.09-.13,1.27-.48,2.11-3.93l1.07.38a26.37,26.37,0,0,1,8.52,5.69c.72.66,1.37,1.4,2.08,2.08a1.79,1.79,0,0,1,.54,1.6,18.68,18.68,0,0,1-2.89,8.27,36.38,36.38,0,0,1-19.87,16,30.24,30.24,0,0,1-11.49,1.57,9.62,9.62,0,0,1-4.62-1.21,2.23,2.23,0,0,1-1.16-1.75,13.89,13.89,0,0,1,.43-5.52,18.26,18.26,0,0,1,6.67-9.34,18.82,18.82,0,0,1,12.14-4.27,9.6,9.6,0,0,1,4.82,1.27,1.44,1.44,0,0,0,.37.19c.32.1.6-.15.47-.45a1.84,1.84,0,0,0-.59-.84,8.14,8.14,0,0,0-2.06-1,15.9,15.9,0,0,0-7.9.12Z"/><path class="cls-5" d="M115.29,201.17A78.18,78.18,0,0,1,94.9,186.48c-.57-.56-1.14-1.14-1.66-1.76a4.52,4.52,0,0,1-1-4.59,25,25,0,0,1,1.67-4.07c1.29-2.32,2.66-4.62,4.16-6.81a162.12,162.12,0,0,1,14.69-18.65c.89-.95,1.8-1.87,2.72-2.78a20.79,20.79,0,0,1,1.72-1.54,3.13,3.13,0,0,1,5.13,2.09,3.45,3.45,0,0,1-.41,1.9,16.38,16.38,0,0,1-1.84,2.81c-2.69,3.23-5.45,6.4-8.15,9.63q-5.77,6.89-11.51,13.81a13,13,0,0,0-1.05,1.57,2.42,2.42,0,0,0,.44,3.14c1.5,1.2,2.95,2.47,4.48,3.64Q110.95,190,117.68,195a1.59,1.59,0,0,1,.75,1.68,5.28,5.28,0,0,1-.3,1.32A8,8,0,0,1,115.29,201.17Z"/><path d="M173.85,199.57a9.1,9.1,0,0,1,1,5.13,4.06,4.06,0,0,1-2.46,3.62,2.75,2.75,0,0,0-.39.25c.1.8.2,1.59.31,2.41a24,24,0,0,1,7.25,4.79,18.25,18.25,0,0,1,5.43,9.54,13.74,13.74,0,0,1,.11,4.7,3.91,3.91,0,0,1-1.67,2.46A7.69,7.69,0,0,1,179.2,234a32.38,32.38,0,0,1-17.8-3.48A38.2,38.2,0,0,1,146,216.52a20.12,20.12,0,0,1-3.24-8.14,7.8,7.8,0,0,1,0-2,2.86,2.86,0,0,1,.9-1.84c1.57-1.4,3.07-2.88,4.69-4.21a21.76,21.76,0,0,1,7.86-4.19c.07-.28.15-.58.22-.89a5.45,5.45,0,0,1,5-4.43,7.37,7.37,0,0,1,5.55,1.26l.74-.52,13-9.83a29.29,29.29,0,0,0,2.24-1.91c.72-.66.65-1.15,0-1.86-1.14-1.28-2.23-2.6-3.34-3.91q-7.62-9-15.22-18c-1.22-1.44-2.37-2.95-3.45-4.5a7.57,7.57,0,0,1-1.09-2.36,4.68,4.68,0,0,1,2.17-5,4,4,0,0,1,5,.08,25.65,25.65,0,0,1,2.6,2.29,123.21,123.21,0,0,1,12.85,15.27c2.39,3.29,4.7,6.64,6.9,10.06a57.21,57.21,0,0,1,3,5.77,9.65,9.65,0,0,1,.52,1.6,6.32,6.32,0,0,1-1.59,6.32,69.48,69.48,0,0,1-7.56,7,63.85,63.85,0,0,1-9.54,6.69C174.09,199.36,174,199.44,173.85,199.57Zm-7.13,6.37a5.76,5.76,0,0,0,.73.43,19.53,19.53,0,0,0,2.73,1,2.66,2.66,0,0,0,3.12-1.56,6.94,6.94,0,0,0-.52-5.72c-.46.22-.83.42-1.21.58l-2.5,1.09a1.62,1.62,0,0,1-1.67-.28,10.77,10.77,0,0,1-2.75-2.72,3.65,3.65,0,0,1,.69-5.31c.26-.21.49-.45.79-.72a6.46,6.46,0,0,0-4.74-.8,4.4,4.4,0,0,0-3.92,4.49,11.38,11.38,0,0,0,.56,3.93c.09.28.13.58.2.89-.67.08-.87-.33-1.07-.68a6,6,0,0,1-.85-2.58c0-.22-.09-.44-.14-.7-.32.09-.55.15-.78.24a23.45,23.45,0,0,0-5.84,3.27,48.94,48.94,0,0,0-5.05,4.6,1.92,1.92,0,0,0-.56,1.7,20,20,0,0,0,3.29,8.89,37.44,37.44,0,0,0,13.28,12.62,32.77,32.77,0,0,0,17.63,4.28,9.21,9.21,0,0,0,4.81-1.31,2,2,0,0,0,1-1.51,13.28,13.28,0,0,0-1.25-7.88A20.12,20.12,0,0,0,169,211.27c-3.13-.81-6.33-.86-9.28.89a1.37,1.37,0,0,1-.58.06c0-.22-.1-.49,0-.66a2,2,0,0,1,.7-.75,7.3,7.3,0,0,1,1.8-.82,16,16,0,0,1,7.9.11l1.51.36c0-.66-.07-1.2-.1-1.71C168.16,208.36,166.71,207.41,166.72,205.94Zm1.58-5.15,3.53-2a78.9,78.9,0,0,0,17.94-14,5.18,5.18,0,0,0,1.31-6,7.34,7.34,0,0,0-.33-.89c-1-1.89-1.9-3.82-3-5.65a123.84,123.84,0,0,0-7.39-10.6,129.84,129.84,0,0,0-12-14.07,22.23,22.23,0,0,0-2.37-2.07,2.79,2.79,0,0,0-1.52-.59c-1.88-.07-4,2.25-3.13,4.22a9.23,9.23,0,0,0,.93,1.76c.95,1.3,1.92,2.59,3,3.82,5.45,6.46,10.93,12.88,16.37,19.34a32.46,32.46,0,0,1,2.59,3.57,2.29,2.29,0,0,1-.38,3c-.59.49-1.13,1.05-1.74,1.52q-4.37,3.36-8.77,6.7c-2.56,1.95-5.13,3.9-7.68,5.87a1.28,1.28,0,0,0-.51.72,3.49,3.49,0,0,0,.35,2.24A8.23,8.23,0,0,0,168.3,200.79Z"/><path class="cls-2" d="M166.72,205.94c0,1.47,1.44,2.42,4.26,2.81,0,.51.06,1.05.1,1.71l-1.51-.36a16,16,0,0,0-7.9-.11,7.3,7.3,0,0,0-1.8.82,2,2,0,0,0-.7.75c-.1.17,0,.44,0,.66a1.37,1.37,0,0,0,.58-.06c2.95-1.75,6.15-1.7,9.28-.89a20.12,20.12,0,0,1,13.65,10.93,13.28,13.28,0,0,1,1.25,7.88,2,2,0,0,1-1,1.51,9.21,9.21,0,0,1-4.81,1.31,32.77,32.77,0,0,1-17.63-4.28A37.44,37.44,0,0,1,147.23,216a20,20,0,0,1-3.29-8.89,1.92,1.92,0,0,1,.56-1.7,48.94,48.94,0,0,1,5.05-4.6,23.45,23.45,0,0,1,5.84-3.27c.23-.09.46-.15.78-.24.05.26.12.48.14.7a6,6,0,0,0,.85,2.58c.2.35.4.76,1.07.68-.07-.31-.11-.61-.2-.89a11.38,11.38,0,0,1-.56-3.93,4.4,4.4,0,0,1,3.92-4.49,6.46,6.46,0,0,1,4.74.8c-.3.27-.53.51-.79.72a3.65,3.65,0,0,0-.69,5.31,10.77,10.77,0,0,0,2.75,2.72,1.62,1.62,0,0,0,1.67.28l2.5-1.09c.38-.16.75-.36,1.21-.58a6.94,6.94,0,0,1,.52,5.72,2.66,2.66,0,0,1-3.12,1.56,19.53,19.53,0,0,1-2.73-1A5.76,5.76,0,0,1,166.72,205.94Z"/><path class="cls-5" d="M168.3,200.79a8.23,8.23,0,0,1-2.84-3,3.49,3.49,0,0,1-.35-2.24,1.28,1.28,0,0,1,.51-.72c2.55-2,5.12-3.92,7.68-5.87q4.39-3.34,8.77-6.7c.61-.47,1.15-1,1.74-1.52a2.29,2.29,0,0,0,.38-3,32.46,32.46,0,0,0-2.59-3.57c-5.44-6.46-10.92-12.88-16.37-19.34-1-1.23-2-2.52-3-3.82a9.23,9.23,0,0,1-.93-1.76c-.85-2,1.25-4.29,3.13-4.22a2.79,2.79,0,0,1,1.52.59,22.23,22.23,0,0,1,2.37,2.07,129.84,129.84,0,0,1,12,14.07,123.84,123.84,0,0,1,7.39,10.6c1.09,1.83,2,3.76,3,5.65a7.34,7.34,0,0,1,.33.89,5.18,5.18,0,0,1-1.31,6,78.9,78.9,0,0,1-17.94,14Z"/><path d="M203.39,38.66c-1.16-.3-2.3-.56-3.41-.9a15.61,15.61,0,0,1-2.38-.92c-2-1-2.43-2.52-1.21-4.45l.31-.46a19.08,19.08,0,0,1-5.81-8.12,10.56,10.56,0,0,1-.83-4.88,6.83,6.83,0,0,1,2.48-4.88,1.38,1.38,0,0,0,.54-1.45A9.12,9.12,0,0,1,196.2,4a7.23,7.23,0,0,1,5.07-1.85,10.6,10.6,0,0,1,1.91.37A9.69,9.69,0,0,1,207.47.25,8.1,8.1,0,0,1,209.36,0a3.6,3.6,0,0,1,3.4,2.08l1-.46A5.88,5.88,0,0,1,218,1.16a4.19,4.19,0,0,1,3.27,4.07c.05,0,.11.1.16.09a4.46,4.46,0,0,1,4.58,1.81,9.77,9.77,0,0,1,2,5,33.27,33.27,0,0,1-.09,7.33,31.12,31.12,0,0,1-1,6.28,12.14,12.14,0,0,1-3.5,5.61,12.74,12.74,0,0,1-1.64,1.16A5.61,5.61,0,0,1,218.62,38a12.62,12.62,0,0,1-5.12,1.25c-.42,0-.84,0-1.32.07,0,.46-.07.84-.1,1.22-.37,5.55-.7,11.1-1.13,16.65-.15,2-.48,4-.83,6a20.67,20.67,0,0,1-4.19,9.42,11.45,11.45,0,0,1-2.21,2.13,80,80,0,0,1-22.67,11.65,11.42,11.42,0,0,1-4.19.56,3.21,3.21,0,0,1-3-2.35A2.69,2.69,0,0,1,175,81.42a17,17,0,0,1,2.56-1.28c3.55-1.52,7.14-2.92,10.65-4.53a56.23,56.23,0,0,0,6.12-3.39A15.47,15.47,0,0,0,201,63.31,43.34,43.34,0,0,0,202.91,53c.28-4.67.37-9.35.54-14A1,1,0,0,0,203.39,38.66Zm-5.91-6.26c-1.45,1.51-1.29,2.79.46,3.69a12.36,12.36,0,0,0,2.06.84,37.58,37.58,0,0,0,14.18,1.43,15.34,15.34,0,0,0,3.5-.82,4.71,4.71,0,0,0,2.53-2,4.38,4.38,0,0,0,.76-2.78c-3.12.66-3.12.66-3.55,0,1.15-.31,2.33-.56,3.45-1a6.14,6.14,0,0,0,2-1.15,10.66,10.66,0,0,0,3.26-5.37,44.32,44.32,0,0,0,1.1-11.82,14.49,14.49,0,0,0-.5-3.13A6.73,6.73,0,0,0,225,7.24a3.28,3.28,0,0,0-4.07-.74,8.25,8.25,0,0,0-3.36,2.86,13.07,13.07,0,0,0-2.24,5.9,8.91,8.91,0,0,0,.16,3.91,2.83,2.83,0,0,0,2.82,2.16,4.26,4.26,0,0,0,2.64-1,5.79,5.79,0,0,0,2-3.3c.1-.36.09-.77.49-1,.74,1.19-.21,3.58-1.91,4.94-2.22,1.76-4.35,1.6-6.51-.5a6.41,6.41,0,0,1-6.41-.58.34.34,0,0,0-.13,0,5.07,5.07,0,0,1-6.43.31,2.72,2.72,0,0,0-.66-.24c-.18-.07-.34-.16-.69-.33a7.11,7.11,0,0,1,.87-.42c.45-.11.91-.16,1.36-.24a19.43,19.43,0,0,0,5.28-1.55A7.16,7.16,0,0,0,211,15.26a2.54,2.54,0,0,0-.36-3.55,3.18,3.18,0,0,0-1.24-.78,9.11,9.11,0,0,0-2.78-.56,27.7,27.7,0,0,0-4.72.6,22.69,22.69,0,0,0-7.42,2.79,6.68,6.68,0,0,0-3.28,7.82,18.13,18.13,0,0,0,2.66,5.87A11.06,11.06,0,0,0,200,32.52c.31.09.7.19.76.76C199.55,33.37,198.58,32.74,197.48,32.4Zm6.82,6.49V40c-.11,4-.12,8-.34,12a48,48,0,0,1-1.9,11.08,17,17,0,0,1-7.61,10.13c-1.51.91-3.06,1.78-4.63,2.6a127.41,127.41,0,0,1-11.9,5.09A15.61,15.61,0,0,0,175.63,82a2,2,0,0,0-.63,2.87,2.39,2.39,0,0,0,2.13,1.17,13.46,13.46,0,0,0,4.78-.89,82.57,82.57,0,0,0,20.85-10.84A13,13,0,0,0,205.23,72a19,19,0,0,0,3.67-7.48A64.2,64.2,0,0,0,210.37,54c.31-4,.54-7.92.8-11.88.06-.91.09-1.82.13-2.74ZM220.41,5.63A3.31,3.31,0,0,0,217.86,2,4.65,4.65,0,0,0,215.35,2,9,9,0,0,0,211,4.74a10.12,10.12,0,0,0-2.41,4.85,17.65,17.65,0,0,1,2,1,3.45,3.45,0,0,1,.79,5.34,14.89,14.89,0,0,1-2,1.82c-.24.2-.51.35-.76.52.92,1.89,4.11,2.58,5.88,1.36C213.82,13.85,215.26,9,220.41,5.63ZM207.85,9.54a10.83,10.83,0,0,1,4.25-6.91A2.87,2.87,0,0,0,209.18.88a7.44,7.44,0,0,0-1.56.23,8.78,8.78,0,0,0-6.59,7,3.68,3.68,0,0,0-.17,2.12A19.81,19.81,0,0,1,207.85,9.54Zm-7.94.84a12.25,12.25,0,0,1,2.57-7.24,6.71,6.71,0,0,0-6.33,2.11,8.48,8.48,0,0,0-2.24,7.55ZM203.32,20l0,.24c1.65.3,3.26.41,4.73-.87-.14-.24-.25-.44-.34-.57Z"/><path class="cls-2" d="M197.48,32.4c1.1.34,2.07,1,3.28.88-.06-.57-.45-.67-.76-.76a11.06,11.06,0,0,1-6.19-5.07,18.13,18.13,0,0,1-2.66-5.87,6.68,6.68,0,0,1,3.28-7.82A22.69,22.69,0,0,1,201.85,11a27.7,27.7,0,0,1,4.72-.6,9.11,9.11,0,0,1,2.78.56,3.18,3.18,0,0,1,1.24.78,2.54,2.54,0,0,1,.36,3.55,7.16,7.16,0,0,1-2.78,2.24,19.43,19.43,0,0,1-5.28,1.55c-.45.08-.91.13-1.36.24a7.11,7.11,0,0,0-.87.42c.35.17.51.26.69.33a2.72,2.72,0,0,1,.66.24,5.07,5.07,0,0,0,6.43-.31.34.34,0,0,1,.13,0,6.41,6.41,0,0,0,6.41.58c2.16,2.1,4.29,2.26,6.51.5,1.7-1.36,2.65-3.75,1.91-4.94-.4.22-.39.63-.49,1a5.79,5.79,0,0,1-2,3.3,4.26,4.26,0,0,1-2.64,1,2.83,2.83,0,0,1-2.82-2.16,8.91,8.91,0,0,1-.16-3.91,13.07,13.07,0,0,1,2.24-5.9A8.25,8.25,0,0,1,220.9,6.5a3.28,3.28,0,0,1,4.07.74,6.73,6.73,0,0,1,1.76,3.11,14.49,14.49,0,0,1,.5,3.13,44.32,44.32,0,0,1-1.1,11.82,10.66,10.66,0,0,1-3.26,5.37,6.14,6.14,0,0,1-2,1.15c-1.12.4-2.3.65-3.45,1,.43.62.43.62,3.55,0a4.38,4.38,0,0,1-.76,2.78,4.71,4.71,0,0,1-2.53,2,15.34,15.34,0,0,1-3.5.82A37.58,37.58,0,0,1,200,36.93a12.36,12.36,0,0,1-2.06-.84C196.19,35.19,196,33.91,197.48,32.4Zm6.47.89a1,1,0,0,0,1,.83q1.46.24,2.94.36a25.45,25.45,0,0,0,6.74-.53c.29-.06.63-.07.73-.65A26.19,26.19,0,0,1,204,33.29Zm3.28-11.48c1.18.48,2.49.76,3.34,1.73a31.23,31.23,0,0,1,2.2,3.12C213.24,24.37,209.5,21,207.23,21.81Z"/><path class="cls-5" d="M204.3,38.89l7,.52c0,.92-.07,1.83-.13,2.74-.26,4-.49,7.93-.8,11.88a64.2,64.2,0,0,1-1.47,10.52A19,19,0,0,1,205.23,72a13,13,0,0,1-2.47,2.32,82.57,82.57,0,0,1-20.85,10.84,13.46,13.46,0,0,1-4.78.89A2.39,2.39,0,0,1,175,84.91a2,2,0,0,1,.63-2.87,15.61,15.61,0,0,1,2.29-1.11,127.41,127.41,0,0,0,11.9-5.09c1.57-.82,3.12-1.69,4.63-2.6a17,17,0,0,0,7.61-10.13A48,48,0,0,0,204,52c.22-4,.23-8,.34-12Z"/><path class="cls-2" d="M220.41,5.63c-5.15,3.36-6.59,8.22-5.89,14-1.77,1.22-5,.53-5.88-1.36.25-.17.52-.32.76-.52a14.89,14.89,0,0,0,2-1.82,3.45,3.45,0,0,0-.79-5.34,17.65,17.65,0,0,0-2-1A10.12,10.12,0,0,1,211,4.74,9,9,0,0,1,215.35,2a4.65,4.65,0,0,1,2.51.06A3.31,3.31,0,0,1,220.41,5.63Z"/><path class="cls-2" d="M207.85,9.54a19.81,19.81,0,0,0-7,.71A3.68,3.68,0,0,1,201,8.13a8.78,8.78,0,0,1,6.59-7,7.44,7.44,0,0,1,1.56-.23,2.87,2.87,0,0,1,2.92,1.75A10.83,10.83,0,0,0,207.85,9.54Z"/><path class="cls-2" d="M199.91,10.38l-6,2.42a8.48,8.48,0,0,1,2.24-7.55,6.71,6.71,0,0,1,6.33-2.11A12.25,12.25,0,0,0,199.91,10.38Z"/><path class="cls-2" d="M203.32,20l4.42-1.2c.09.13.2.33.34.57-1.47,1.28-3.08,1.17-4.73.87Z"/><path d="M204,33.29a26.19,26.19,0,0,0,11.42,0c-.1.58-.44.59-.73.65a25.45,25.45,0,0,1-6.74.53q-1.49-.12-2.94-.36A1,1,0,0,1,204,33.29Z"/><path d="M207.23,21.81c2.27-.8,6,2.56,5.54,4.85a31.23,31.23,0,0,0-2.2-3.12C209.72,22.57,208.41,22.29,207.23,21.81Z"/><path class="cls-6" d="M192.81,118.42c-.57-1.36-1.14-2.83-1.7-4.07-.91-2-1.81-4-2.61-5.78l-.11-.11c-7.81-17-16.19-34.19-25-51.17l-.34-.68c-.9-1.7-1.81-3.51-2.71-5.32a32.5,32.5,0,0,0-4.08-6.22,18.27,18.27,0,0,0-14.37-7,19,19,0,0,0-14.49,6.79,38.82,38.82,0,0,0-4.08,6.23c-.9,1.81-1.81,3.62-2.72,5.32l-.34.68c-8.71,17-17.2,34.18-25,51.16l-.12.23c-.79,1.81-1.69,3.73-2.6,5.77-.57,1.25-1.13,2.61-1.7,4.08a25.51,25.51,0,0,0-1.36,12.22,24.09,24.09,0,0,0,14.72,18.8,23.33,23.33,0,0,0,9.17,1.81,26.45,26.45,0,0,0,2.94-.23,29.82,29.82,0,0,0,11.32-3.85c4.64-2.6,9.06-6.34,14-11.77a59.42,59.42,0,0,0,14,11.77A29.82,29.82,0,0,0,167,150.91a26.27,26.27,0,0,0,2.94.23,23,23,0,0,0,9.17-1.81,24,24,0,0,0,14.72-18.8,21.44,21.44,0,0,0-1-12.11Zm-51.06,5.89c-6.11-7.7-10.07-15-11.43-21.06a18.15,18.15,0,0,1-.34-6.9,11.14,11.14,0,0,1,1.81-4.76,12,12,0,0,1,10-5,11.57,11.57,0,0,1,10,5,11,11,0,0,1,1.82,4.76,18.47,18.47,0,0,1-.34,6.9c-1.36,6-5.32,13.25-11.44,21.06Zm45.17,5.32a16.81,16.81,0,0,1-10.3,13.24A17.15,17.15,0,0,1,168,144a22.29,22.29,0,0,1-8.61-2.94c-4.07-2.26-8.15-5.77-12.9-11,7.47-9.17,12-17.55,13.69-25a28.17,28.17,0,0,0,.57-9.62,18.31,18.31,0,0,0-3.06-7.7,19.07,19.07,0,0,0-16-8,19.37,19.37,0,0,0-16,8,18.57,18.57,0,0,0-3.06,7.7,23.64,23.64,0,0,0,.57,9.62c1.7,7.47,6.34,16,13.7,25.13-4.64,5.21-8.83,8.72-12.91,11a22.22,22.22,0,0,1-8.6,3,18.19,18.19,0,0,1-8.6-1.13,16.82,16.82,0,0,1-10.3-13.25,18.75,18.75,0,0,1,1-8.83c.34-1.13.91-2.26,1.48-3.62.79-1.81,1.69-3.74,2.6-5.66l.11-.23C109.6,94.54,118,77.33,126.7,60.57l.34-.67c.9-1.7,1.81-3.51,2.71-5.21a25.28,25.28,0,0,1,3.17-5,11.89,11.89,0,0,1,18.12,0,25.28,25.28,0,0,1,3.17,5c.9,1.7,1.81,3.51,2.71,5.21l.34.67c8.6,16.87,17,34.08,24.79,50.95v.11c.91,1.81,1.7,3.85,2.61,5.66.56,1.36,1.13,2.49,1.47,3.62a19.24,19.24,0,0,1,.79,8.72Z"/><path d="M12.11,57.81a.81.81,0,0,1-.81-.6L10,52.74l-1.3,4.47a.84.84,0,0,1-1.61,0L5.22,51.17a1.18,1.18,0,0,1,0-.29.69.69,0,0,1,.73-.61.63.63,0,0,1,.61.51l1.41,4.95,1.4-4.95a.73.73,0,0,1,1.39,0l1.41,4.95,1.41-4.95c.09-.29.21-.51.6-.51s.74.24.74.61a.88.88,0,0,1-.06.29l-1.88,6.06A.83.83,0,0,1,12.11,57.81Z"/><path d="M18.07,56.77a1.7,1.7,0,0,0,.94-.31.55.55,0,0,1,.88.52.48.48,0,0,1-.29.43,2.9,2.9,0,0,1-1.52.45,2.45,2.45,0,0,1-2.53-2.45,2.42,2.42,0,1,1,4.84,0c0,.24-.06.39-.33.39H16.75A1.28,1.28,0,0,0,18.07,56.77ZM18,54a1.26,1.26,0,0,0-1.21.85h2.36A1.1,1.1,0,0,0,18,54Z"/><path d="M28.24,57.81c-.33,0-.55-.07-.6-.38a2,2,0,0,1-1.32.43,2.48,2.48,0,1,1,0-5,2.06,2.06,0,0,1,1.32.44c.08-.31.25-.42.6-.42s.62.24.62.74v3.38C28.86,57.57,28.67,57.81,28.24,57.81Zm-1.93-3.73a1.31,1.31,0,1,0,1.33,1.31A1.32,1.32,0,0,0,26.31,54.08Z"/><path d="M31.93,56.71c.21,0,.43.11.43.56a.53.53,0,0,1-.59.59,1.26,1.26,0,0,1-1.41-1.39V50.9a.62.62,0,1,1,1.23,0v5.29C31.59,56.51,31.58,56.71,31.93,56.71Z"/><path d="M34.76,56.71c.21,0,.43.11.43.56a.53.53,0,0,1-.59.59,1.26,1.26,0,0,1-1.41-1.39V50.9a.62.62,0,1,1,1.23,0v5.29C34.42,56.51,34.41,56.71,34.76,56.71Z"/><path d="M41.25,52.91a2.48,2.48,0,1,1,0,5,2,2,0,0,1-1.3-.43c-.1.27-.25.38-.62.38s-.61-.29-.61-.76V50.91c0-.46.24-.63.61-.63a.55.55,0,0,1,.62.63v2.44A2,2,0,0,1,41.25,52.91Zm0,3.78a1.31,1.31,0,1,0,0-2.61,1.31,1.31,0,0,0,0,2.61Z"/><path d="M47,56.77a1.74,1.74,0,0,0,1-.31.59.59,0,0,1,.31-.12.63.63,0,0,1,.57.64.48.48,0,0,1-.29.43,3,3,0,0,1-1.53.45,2.45,2.45,0,0,1-2.52-2.45,2.42,2.42,0,1,1,4.84,0c0,.24-.06.39-.33.39H45.7A1.27,1.27,0,0,0,47,56.77ZM46.94,54a1.25,1.25,0,0,0-1.2.85H48.1A1.12,1.12,0,0,0,46.94,54Z"/><path d="M52,56.71c.21,0,.42.11.42.56a.53.53,0,0,1-.58.59,1.26,1.26,0,0,1-1.41-1.39V50.9a.62.62,0,1,1,1.23,0v5.29C51.67,56.51,51.66,56.71,52,56.71Z"/><path d="M55.39,57.86a2.48,2.48,0,1,1,2.53-2.47A2.49,2.49,0,0,1,55.39,57.86Zm0-3.78a1.31,1.31,0,1,0,1.32,1.31A1.32,1.32,0,0,0,55.39,54.08Z"/><path d="M62.82,57.81c-.37,0-.6-.2-.6-.64v-2c0-.93-.5-1.13-1-1.13s-1,.19-1,1.11v2a.57.57,0,0,1-.62.64c-.37,0-.61-.18-.61-.64v-3.5c0-.45.18-.74.61-.74a.56.56,0,0,1,.62.42,1.82,1.82,0,0,1,1.24-.44A1.86,1.86,0,0,1,63.44,55v2.16A.56.56,0,0,1,62.82,57.81Z"/><path d="M67,57.86a2.48,2.48,0,1,1,0-5,2.06,2.06,0,0,1,1.32.44.58.58,0,0,1,.61-.42c.42,0,.62.3.62.74V57.4c0,2.53-1.62,2.86-2.55,2.86A2.58,2.58,0,0,1,65.73,60c-.22-.12-.58-.33-.58-.65a.67.67,0,0,1,.53-.63,1,1,0,0,1,.46.17,1.73,1.73,0,0,0,.82.24c.73,0,1.32-.37,1.32-1.44v-.21A2,2,0,0,1,67,57.86Zm0-3.78a1.31,1.31,0,1,0,1.33,1.31A1.33,1.33,0,0,0,67,54.08Z"/></g></g></svg>