<svg xmlns="http://www.w3.org/2000/svg" viewBox="0 0 261.2 191.7"><defs><style>.cls-1{fill:#d1d1d1;}.cls-2{fill:#fff;}.cls-3{fill:#3b464e;}.cls-4,.cls-5,.cls-6{fill:#ff5a5f;}.cls-4{fill-rule:evenodd;}.cls-5,.cls-6{stroke:#000;stroke-miterlimit:10;}.cls-5{stroke-width:0.5px;}.cls-6{stroke-width:0.25px;}</style></defs><title>Fichier 3</title><g id="Calque_2" data-name="Calque 2"><g id="Calque_1-2" data-name="Calque 1"><path d="M27.64,167.61c2.13-.48,3.7.66,5.07,2.1,4.62-2.39,9.17-4.78,13.76-7.1,2.64-1.33,5.35-2.53,8-3.81A14.26,14.26,0,0,1,65,158a77.81,77.81,0,0,1,18.25,7.91l.11.07c1.53,1,2,2,1.44,3.43a3.24,3.24,0,0,1-3.7,2.3,8.07,8.07,0,0,1-2-.72c-2.46-1.22-4.89-2.5-7.34-3.73a34.6,34.6,0,0,0-8.17-3.08,11.8,11.8,0,0,0-8.36,1c-5.81,3.05-11.68,6-17.52,9-.87.45-1.71,1-2.62,1.5a35.44,35.44,0,0,1,0,3.72,8.19,8.19,0,0,1-.8,2.69A3.43,3.43,0,0,1,29.69,184a55.76,55.76,0,0,1-4.16,3.87,26.7,26.7,0,0,1-4.89,3.06c-4,1.86-8,.31-9.89-3.7A22.52,22.52,0,0,1,9,181.05c0-.13,0-.26,0-.39-.16-2.07-.68-3.95-2.63-5.1A20.57,20.57,0,0,1,0,160.3a12.2,12.2,0,0,1,.63-3.53c1.22-3.71,4-5.53,7.75-6.06,7.8-1.12,14.6,3.12,17.57,10.85C26.68,163.46,27.06,165.5,27.64,167.61Zm-.89,5-.37-.09c0-.25,0-.49,0-.74a20.13,20.13,0,0,0-2.75-12.86,14.75,14.75,0,0,0-15.71-7.16,7.73,7.73,0,0,0-6.69,6.45,13.45,13.45,0,0,0-.09,5.25A21.11,21.11,0,0,0,8.2,176a3.8,3.8,0,0,1,1.27,2.29c.19,1.06.36,2.12.56,3.17a19.33,19.33,0,0,0,1.6,5.42c1.21,2.39,3.25,4.28,6.65,3.77a9,9,0,0,0,2.65-.9,23.89,23.89,0,0,0,6.66-5c.89-.93,1.76-1.88,2.66-2.8.22-.22.45-.58.93-.19-.27.44-.55.89-.9,1.43a2.27,2.27,0,0,0,2.53-.61,4.7,4.7,0,0,0,1.37-3,13.33,13.33,0,0,0-1.58-8.34,6.11,6.11,0,0,0-2.31-2.37,3.09,3.09,0,0,0-2.73-.23C27.16,169.94,27.62,171.45,26.75,172.61ZM35,174.67c.76-.43,1.52-.89,2.31-1.3,5.92-3,11.85-6.05,17.75-9.13a12.27,12.27,0,0,1,8.37-1A32.86,32.86,0,0,1,72,166.34c2.53,1.28,5,2.59,7.58,3.84a6.31,6.31,0,0,0,2.07.6A2.36,2.36,0,0,0,84,168.83c.31-1.14.05-1.74-1.17-2.36-2.6-1.32-5.19-2.67-7.84-3.9a60.88,60.88,0,0,0-11.38-4,11.35,11.35,0,0,0-7.19.46c-.79.33-1.61.61-2.37,1q-9.88,5-19.75,10a9.92,9.92,0,0,0-.88.55Z"/><path class="cls-1" d="M22.05,188l-.27-.17a6.41,6.41,0,0,1,.31-.87,8.14,8.14,0,0,0-.42-9.33,16.18,16.18,0,0,1-3-9.54c0-1.08-.06-2.15-.1-3.23a18.58,18.58,0,0,0-1-5.42,8.46,8.46,0,0,0-4.89-5.33,7,7,0,0,0-3-.68H8.29l0-.18a11.86,11.86,0,0,0-5,.79,8.46,8.46,0,0,0-2.07,4.14,13.45,13.45,0,0,0-.09,5.25A21.11,21.11,0,0,0,8.2,176a3.8,3.8,0,0,1,1.27,2.29c.19,1.06.36,2.12.56,3.17a19.33,19.33,0,0,0,1.6,5.42c1.21,2.39,3.25,4.28,6.65,3.77a9,9,0,0,0,2.65-.9h0A6.23,6.23,0,0,0,22.09,188ZM12.9,155.9a1,1,0,0,1,.75.25,2.22,2.22,0,0,1-.68.39c-3,.64-6,1.26-9,1.84a2.17,2.17,0,0,1-2-.32C5.81,157.3,9.35,156.59,12.9,155.9ZM2.14,161.72q5.88-1.22,11.75-2.41c.13,0,.28.1.47.18-.93.69-9.4,2.64-11.59,2.68C2.56,162.18,2.34,162,2.14,161.72Zm1,3.7a1.53,1.53,0,0,1,.07-.26s0-.09.06-.11a1.55,1.55,0,0,1,.36-.13q5.85-.82,11.71-1.62c.05,0,.11.1.43.39a91.84,91.84,0,0,1-11.71,1.93A3.46,3.46,0,0,1,3.14,165.42ZM4.76,169a5.87,5.87,0,0,1,.89-.35c2.59-.53,9.68-1.23,10.7-1C15,168.45,6.38,169.47,4.76,169Zm3,3.89a9.28,9.28,0,0,1-1.17-.09c.2-.29.26-.46.33-.47q4.26-.57,8.52-1.11a2.7,2.7,0,0,1,.77.15C15.34,172,11.42,172.67,7.78,172.91Zm1.76,2.84a24.18,24.18,0,0,1,4.43-.9,19.12,19.12,0,0,1,4.31-.65l.08.26c-.14.12-.28.33-.44.36q-3.92.66-7.85,1.28C9.91,176.12,9.71,176,9.54,175.75ZM13,178.87a17.31,17.31,0,0,1,2.37-.54c.75-.16,1.5-.36,2.26-.48a3.4,3.4,0,0,1,2.29,0c-1.68.92-7.85,2.05-9,1.66C11.5,178.76,12.38,179.11,13,178.87Zm-1.87,4v-.41c3.19-.65,6.37-1.39,9.6-1.82.16,0,.35.15.83.38a93.59,93.59,0,0,1-9.62,2A2.13,2.13,0,0,1,11.16,182.91Zm3.65,5.86c.34-.33.45-.52.62-.58a7.75,7.75,0,0,1,4.07-.43C18.07,188.24,16.71,189.16,14.81,188.77Zm5.75-4.12c-2.51.51-5,1-7.55,1.45-.44.08-.91.26-1.23-.44,4-1.2,9-2,10.12-1.6C21.59,184.6,21,184.56,20.56,184.65Z"/><path class="cls-2" d="M32.6,171.24a6.11,6.11,0,0,0-2.31-2.37,3.09,3.09,0,0,0-2.73-.23c-.4,1.3.06,2.81-.81,4l-.37-.09c0-.25,0-.49,0-.74a20.13,20.13,0,0,0-2.75-12.86,14.75,14.75,0,0,0-15.71-7.16,8.36,8.36,0,0,0-4.62,2.31,11.86,11.86,0,0,1,5-.79l0-.3a6,6,0,0,1,1.15-.22,8.91,8.91,0,0,1,8,4.39,15.06,15.06,0,0,1,2,6.74c.14,1.45.21,2.91.22,4.37A14.56,14.56,0,0,0,22,176.65a10.76,10.76,0,0,1,2,5.08,8.3,8.3,0,0,1-1.3,5.53,5.84,5.84,0,0,1-.69.72,6.23,6.23,0,0,1-1.15,1.76,23.76,23.76,0,0,0,6.65-5c.89-.93,1.76-1.88,2.66-2.8.22-.22.45-.58.93-.19-.27.44-.55.89-.9,1.43a2.27,2.27,0,0,0,2.53-.61,4.7,4.7,0,0,0,1.37-3A13.33,13.33,0,0,0,32.6,171.24ZM31.72,179c-.71-.3-.47-.84-.56-1.25-.24-1.11-.44-2.24-.75-3.33a7,7,0,0,0-.77-1.31c-.12-.2-.2-.41-.4-.81a3.38,3.38,0,0,1,2.17,2.34A5.85,5.85,0,0,1,31.72,179Z"/><path class="cls-3" d="M35,174.67l-1.57-4.13a9.92,9.92,0,0,1,.88-.55q9.87-5,19.75-10c.76-.39,1.58-.67,2.37-1a11.35,11.35,0,0,1,7.19-.46,60.88,60.88,0,0,1,11.38,4c2.65,1.23,5.24,2.58,7.84,3.9,1.22.62,1.48,1.22,1.17,2.36a2.36,2.36,0,0,1-2.38,1.95,6.31,6.31,0,0,1-2.07-.6c-2.54-1.25-5.05-2.56-7.58-3.84a32.86,32.86,0,0,0-8.55-3.13,12.27,12.27,0,0,0-8.37,1c-5.9,3.08-11.83,6.09-17.75,9.13C36.5,173.78,35.74,174.24,35,174.67Z"/><path d="M8.21,153a6,6,0,0,1,1.15-.22,8.91,8.91,0,0,1,8,4.39,15.06,15.06,0,0,1,2,6.74c.14,1.45.21,2.91.22,4.37A14.56,14.56,0,0,0,22,176.65a10.76,10.76,0,0,1,2,5.08,8.3,8.3,0,0,1-1.3,5.53,7.56,7.56,0,0,1-.73.77l-.27-.17a6.41,6.41,0,0,1,.31-.87,8.14,8.14,0,0,0-.42-9.33,16.18,16.18,0,0,1-3-9.54c0-1.08-.06-2.15-.1-3.23a18.58,18.58,0,0,0-1-5.42,8.46,8.46,0,0,0-4.89-5.33,7,7,0,0,0-3-.68H8.29Z"/><path d="M15.77,163.69a91.84,91.84,0,0,1-11.71,1.93,3.46,3.46,0,0,1-.92-.2,1.53,1.53,0,0,1,.07-.26s0-.09.06-.11a1.55,1.55,0,0,1,.36-.13q5.85-.82,11.71-1.62C15.39,163.29,15.45,163.4,15.77,163.69Z"/><path d="M14.36,159.49c-.93.69-9.4,2.64-11.59,2.68-.21,0-.43-.16-.63-.45q5.88-1.22,11.75-2.41C14,159.28,14.17,159.41,14.36,159.49Z"/><path d="M11.15,182.5c3.19-.65,6.37-1.39,9.6-1.82.16,0,.35.15.83.38a93.59,93.59,0,0,1-9.62,2,2.13,2.13,0,0,1-.8-.17Z"/><path d="M11.78,185.66c4-1.2,9-2,10.12-1.6-.31.54-.9.5-1.34.59-2.51.51-5,1-7.55,1.45C12.57,186.18,12.1,186.36,11.78,185.66Z"/><path d="M2,158.06c3.84-.76,7.38-1.47,10.93-2.16a1,1,0,0,1,.75.25,2.22,2.22,0,0,1-.68.39c-3,.64-6,1.26-9,1.84A2.17,2.17,0,0,1,2,158.06Z"/><path d="M16.35,167.65c-1.35.8-10,1.82-11.59,1.37a5.87,5.87,0,0,1,.89-.35C8.24,168.14,15.33,167.44,16.35,167.65Z"/><path d="M20,177.88c-1.68.92-7.85,2.05-9,1.66.55-.78,1.43-.43,2.08-.67a17.31,17.31,0,0,1,2.37-.54c.75-.16,1.5-.36,2.26-.48A3.4,3.4,0,0,1,20,177.88Z"/><path d="M16.23,171.39c-.89.6-4.81,1.28-8.45,1.52a9.28,9.28,0,0,1-1.17-.09c.2-.29.26-.46.33-.47q4.26-.57,8.52-1.11A2.7,2.7,0,0,1,16.23,171.39Z"/><path d="M18.36,174.46c-.14.12-.28.33-.44.36q-3.92.66-7.85,1.28c-.16,0-.36-.15-.53-.35a24.18,24.18,0,0,1,4.43-.9,19.12,19.12,0,0,1,4.31-.65Z"/><path d="M29.24,172.33a3.38,3.38,0,0,1,2.17,2.34,5.85,5.85,0,0,1,.31,4.36c-.71-.3-.47-.84-.56-1.25-.24-1.11-.44-2.24-.75-3.33a7,7,0,0,0-.77-1.31C29.52,172.94,29.44,172.73,29.24,172.33Z"/><path d="M19.5,187.76c-1.43.48-2.79,1.4-4.69,1,.34-.33.45-.52.62-.58A7.75,7.75,0,0,1,19.5,187.76Z"/><path d="M235.25,154.56c3-7.73,9.77-12,17.57-10.85,3.72.53,6.53,2.35,7.75,6.06a12.2,12.2,0,0,1,.63,3.53,20.57,20.57,0,0,1-6.34,15.26c-2,1.15-2.47,3-2.63,5.1,0,.13,0,.26,0,.39a22.52,22.52,0,0,1-1.74,6.17c-1.92,4-5.86,5.56-9.89,3.7a26.7,26.7,0,0,1-4.89-3.06,55.76,55.76,0,0,1-4.16-3.87,3.43,3.43,0,0,1-4.53-1.88,8.19,8.19,0,0,1-.8-2.69,35.44,35.44,0,0,1,0-3.72c-.91-.52-1.75-1-2.62-1.5-5.84-3-11.7-5.95-17.52-9a11.8,11.8,0,0,0-8.36-1,34.6,34.6,0,0,0-8.17,3.08c-2.45,1.23-4.88,2.51-7.34,3.73a7.94,7.94,0,0,1-2,.72,3.24,3.24,0,0,1-3.7-2.3c-.52-1.44-.09-2.45,1.44-3.43l.11-.07A77.81,77.81,0,0,1,196.19,151a14.25,14.25,0,0,1,10.52.79c2.67,1.28,5.38,2.48,8,3.81,4.59,2.32,9.14,4.71,13.76,7.1,1.37-1.44,2.94-2.58,5.07-2.1C234.14,158.5,234.52,156.46,235.25,154.56Zm-1.61,7.08a3.09,3.09,0,0,0-2.73.23,6.11,6.11,0,0,0-2.31,2.37,13.33,13.33,0,0,0-1.58,8.34,4.7,4.7,0,0,0,1.37,3,2.27,2.27,0,0,0,2.53.61c-.35-.54-.63-1-.9-1.43.48-.39.71,0,.93.19.9.92,1.77,1.87,2.66,2.8a23.89,23.89,0,0,0,6.66,5,9,9,0,0,0,2.65.9c3.4.51,5.44-1.38,6.65-3.77a19.33,19.33,0,0,0,1.6-5.42c.2-1.05.37-2.11.56-3.17A3.8,3.8,0,0,1,253,169a21.11,21.11,0,0,0,7.06-12.54,13.26,13.26,0,0,0-.09-5.25,7.73,7.73,0,0,0-6.69-6.45,14.76,14.76,0,0,0-15.71,7.16,20.13,20.13,0,0,0-2.75,12.86c0,.25,0,.49,0,.74l-.37.09C233.58,164.45,234,162.94,233.64,161.64Zm-5.85,1.9a9.92,9.92,0,0,0-.88-.55q-9.87-5-19.75-10c-.76-.39-1.58-.67-2.37-1a11.35,11.35,0,0,0-7.19-.46,60.88,60.88,0,0,0-11.38,4c-2.65,1.23-5.24,2.58-7.84,3.9-1.21.62-1.48,1.22-1.17,2.36a2.36,2.36,0,0,0,2.38,1.95,6.31,6.31,0,0,0,2.07-.6c2.54-1.25,5.05-2.56,7.58-3.84a32.86,32.86,0,0,1,8.55-3.13,12.27,12.27,0,0,1,8.37,1c5.9,3.08,11.83,6.09,17.75,9.13.79.41,1.55.87,2.31,1.3Z"/><path class="cls-1" d="M239.11,181a6.23,6.23,0,0,0,1.15,1.76h0a9,9,0,0,0,2.65.9c3.4.51,5.44-1.38,6.65-3.77a19.33,19.33,0,0,0,1.6-5.42c.2-1.05.37-2.11.56-3.17A3.8,3.8,0,0,1,253,169a21.11,21.11,0,0,0,7.06-12.54,13.26,13.26,0,0,0-.09-5.25,8.37,8.37,0,0,0-2.07-4.14,11.86,11.86,0,0,0-5-.79l0,.18h-1.36a7,7,0,0,0-3,.68,8.48,8.48,0,0,0-4.89,5.33,18.58,18.58,0,0,0-1,5.42c0,1.08-.11,2.15-.1,3.23a16.11,16.11,0,0,1-3,9.54,8.16,8.16,0,0,0-.42,9.33,6.41,6.41,0,0,1,.31.87l-.27.17Zm20.12-29.92a2.17,2.17,0,0,1-2.05.32c-3-.58-6-1.2-9-1.84a2.22,2.22,0,0,1-.68-.39,1,1,0,0,1,.75-.25C251.85,149.59,255.39,150.3,259.23,151.06Zm-.8,4.11c-2.19,0-10.66-2-11.59-2.68.19-.08.34-.21.47-.18q5.88,1.19,11.75,2.41C258.86,155,258.64,155.18,258.43,155.17Zm-1.29,3.45a92.13,92.13,0,0,1-11.71-1.93c.32-.29.38-.4.43-.39q5.87.8,11.71,1.62a1.55,1.55,0,0,1,.36.13.2.2,0,0,1,.06.11,1.53,1.53,0,0,1,.07.26A3.46,3.46,0,0,1,257.14,158.62Zm-12.29,2c1-.21,8.11.49,10.7,1a5.87,5.87,0,0,1,.89.35C254.83,162.47,246.2,161.45,244.85,160.65Zm.12,3.74a2.7,2.7,0,0,1,.77-.15q4.26.54,8.52,1.11c.08,0,.13.18.33.47a9.28,9.28,0,0,1-1.17.09C249.78,165.67,245.86,165,245,164.39Zm6.16,4.71q-3.93-.61-7.85-1.28c-.16,0-.3-.24-.44-.36l.08-.26a19.12,19.12,0,0,1,4.31.65,24.18,24.18,0,0,1,4.43.9C251.49,169,251.29,169.12,251.13,169.1Zm-.88,3.44c-1.15.39-7.32-.74-9-1.66a3.37,3.37,0,0,1,2.28,0c.76.12,1.51.32,2.26.48a17.31,17.31,0,0,1,2.37.54C248.82,172.11,249.7,171.76,250.25,172.54Zm-1,3.54a93.59,93.59,0,0,1-9.62-2c.48-.23.67-.4.83-.38,3.24.43,6.41,1.17,9.6,1.82v.41A2.13,2.13,0,0,1,249.24,176.08Zm-7.54,4.68a7.75,7.75,0,0,1,4.07.43c.17.06.28.25.62.58C244.49,182.16,243.14,181.24,241.7,180.76Zm-2.39-3.7c1.13-.39,6.08.4,10.11,1.6-.32.7-.78.52-1.23.44-2.52-.48-5-.94-7.55-1.45C240.2,177.56,239.61,177.6,239.31,177.06Z"/><path class="cls-2" d="M227,172.58a4.7,4.7,0,0,0,1.37,3,2.27,2.27,0,0,0,2.53.61c-.35-.54-.63-1-.9-1.43.48-.39.71,0,.93.19.9.92,1.77,1.87,2.66,2.8a23.76,23.76,0,0,0,6.65,5,6.23,6.23,0,0,1-1.15-1.76,5.84,5.84,0,0,1-.69-.72,8.3,8.3,0,0,1-1.3-5.53,10.76,10.76,0,0,1,2-5.08,14.56,14.56,0,0,0,2.51-8.39c0-1.46.08-2.92.22-4.37a15.06,15.06,0,0,1,2-6.74,8.91,8.91,0,0,1,8-4.39A5.83,5.83,0,0,1,253,146l-.05.3a11.86,11.86,0,0,1,5,.79,8.32,8.32,0,0,0-4.62-2.31,14.76,14.76,0,0,0-15.71,7.16,20.13,20.13,0,0,0-2.75,12.86c0,.25,0,.49,0,.74l-.37.09c-.87-1.16-.41-2.67-.81-4a3.09,3.09,0,0,0-2.73.23,6.11,6.11,0,0,0-2.31,2.37A13.33,13.33,0,0,0,227,172.58Zm2.77-4.91a3.38,3.38,0,0,1,2.17-2.34c-.2.4-.28.61-.4.81a6.45,6.45,0,0,0-.76,1.31c-.32,1.09-.52,2.22-.76,3.33-.09.41.15.95-.56,1.25A5.85,5.85,0,0,1,229.79,167.67Z"/><path class="cls-3" d="M226.22,167.67l1.57-4.13a9.92,9.92,0,0,0-.88-.55q-9.87-5-19.75-10c-.76-.39-1.58-.67-2.37-1a11.35,11.35,0,0,0-7.19-.46,60.88,60.88,0,0,0-11.38,4c-2.65,1.23-5.24,2.58-7.84,3.9-1.21.62-1.48,1.22-1.17,2.36a2.36,2.36,0,0,0,2.38,1.95,6.31,6.31,0,0,0,2.07-.6c2.54-1.25,5.05-2.56,7.58-3.84a32.86,32.86,0,0,1,8.55-3.13,12.27,12.27,0,0,1,8.37,1c5.9,3.08,11.83,6.09,17.75,9.13C224.7,166.78,225.46,167.24,226.22,167.67Z"/><path d="M253,146a5.83,5.83,0,0,0-1.15-.22,8.91,8.91,0,0,0-8,4.39,15.06,15.06,0,0,0-2,6.74c-.14,1.45-.21,2.91-.22,4.37a14.56,14.56,0,0,1-2.51,8.39,10.76,10.76,0,0,0-2,5.08,8.3,8.3,0,0,0,1.3,5.53,7.56,7.56,0,0,0,.73.77l.27-.17a6.41,6.41,0,0,0-.31-.87,8.16,8.16,0,0,1,.42-9.33,16.11,16.11,0,0,0,3-9.54c0-1.08.06-2.15.1-3.23a18.58,18.58,0,0,1,1-5.42,8.48,8.48,0,0,1,4.89-5.33,7,7,0,0,1,3-.68h1.36Z"/><path d="M245.43,156.69a92.13,92.13,0,0,0,11.71,1.93,3.46,3.46,0,0,0,.92-.2,1.53,1.53,0,0,0-.07-.26.2.2,0,0,0-.06-.11,1.55,1.55,0,0,0-.36-.13q-5.85-.82-11.71-1.62C245.81,156.29,245.75,156.4,245.43,156.69Z"/><path d="M246.84,152.49c.93.69,9.4,2.64,11.59,2.68.21,0,.43-.16.63-.45q-5.88-1.22-11.75-2.41C247.18,152.28,247,152.41,246.84,152.49Z"/><path d="M250.05,175.5c-3.19-.65-6.36-1.39-9.6-1.82-.16,0-.35.15-.83.38a93.59,93.59,0,0,0,9.62,2,2.13,2.13,0,0,0,.8-.17Z"/><path d="M249.42,178.66c-4-1.2-9-2-10.11-1.6.3.54.89.5,1.33.59,2.51.51,5,1,7.55,1.45C248.64,179.18,249.1,179.36,249.42,178.66Z"/><path d="M259.23,151.06c-3.84-.76-7.38-1.47-10.93-2.16a1,1,0,0,0-.75.25,2.22,2.22,0,0,0,.68.39c3,.64,6,1.26,9,1.84A2.17,2.17,0,0,0,259.23,151.06Z"/><path d="M244.85,160.65c1.35.8,10,1.82,11.59,1.37a5.87,5.87,0,0,0-.89-.35C253,161.14,245.87,160.44,244.85,160.65Z"/><path d="M241.26,170.88c1.67.92,7.84,2.05,9,1.66-.55-.78-1.43-.43-2.08-.67a17.31,17.31,0,0,0-2.37-.54c-.75-.16-1.5-.36-2.26-.48A3.37,3.37,0,0,0,241.26,170.88Z"/><path d="M245,164.39c.89.6,4.81,1.28,8.45,1.52a9.28,9.28,0,0,0,1.17-.09c-.2-.29-.25-.46-.33-.47q-4.26-.57-8.52-1.11A2.7,2.7,0,0,0,245,164.39Z"/><path d="M242.84,167.46c.14.12.28.33.44.36q3.91.66,7.85,1.28c.16,0,.36-.15.53-.35a24.18,24.18,0,0,0-4.43-.9,19.12,19.12,0,0,0-4.31-.65Z"/><path d="M232,165.33a3.38,3.38,0,0,0-2.17,2.34,5.85,5.85,0,0,0-.31,4.36c.71-.3.47-.84.56-1.25.24-1.11.44-2.24.76-3.33a6.45,6.45,0,0,1,.76-1.31C231.68,165.94,231.76,165.73,232,165.33Z"/><path d="M241.7,180.76c1.44.48,2.79,1.4,4.69,1-.34-.33-.45-.52-.62-.58A7.75,7.75,0,0,0,241.7,180.76Z"/><path d="M67.29,79.73c-.92-.13-1.74-.18-2.54-.36-1.8-.43-2.38-1.36-2-3.19.08-.46.22-.91.36-1.45-2.52-.44-4-2.24-5.41-4.16a39.9,39.9,0,0,1-2.33-3.67,8.36,8.36,0,0,1-1.16-4.15,4.79,4.79,0,0,1,4.27-5,3.4,3.4,0,0,1,1.71-3,4.72,4.72,0,0,1,3.5-.56c0-.37-.06-.66-.11-.94-.64-3.71-1.29-7.42-1.92-11.13a8.67,8.67,0,0,1-.05-1.53,4,4,0,0,1,5.17-3.72A3.23,3.23,0,0,1,69,39.26c.49,1.73.88,3.5,1.23,5.26s.65,3.79,1,5.68a.57.57,0,0,0,.35.41c.11-.9.18-1.8.35-2.69.44-2.39.88-4.78,1.41-7.15a8,8,0,0,1,.93-2.15A3.78,3.78,0,0,1,77,36.78a2.23,2.23,0,0,1,2.62,1.49,5.83,5.83,0,0,1,.29,2.19c-.22,2.54-.52,5.07-.82,7.6-.16,1.29-.38,2.56-.6,3.84s-.46,2.53-.7,3.85a4.9,4.9,0,0,0,.68.26c2.21.43,3.2,1.93,3.57,4a19.92,19.92,0,0,1-.11,5.87,12.72,12.72,0,0,1-1.35,4.78c.11.15.21.3.33.44a2.66,2.66,0,0,1,.37,3.08,5.52,5.52,0,0,1-2.52,2.72c-1.28.65-2.65,1.15-4,1.7-.32.13-.67.2-1.05.31,0,.25-.08.47-.1.7a56.2,56.2,0,0,0,3.47,22.17c.13.37.29.73.43,1.1a9,9,0,0,0,3.93,4.53,67.84,67.84,0,0,0,10.41,4.93c2.05.78,4.1,1.55,6.14,2.38a9.23,9.23,0,0,1,1.94,1.08,3.37,3.37,0,0,1,1.44,3.28c-.21,2-1.63,3.82-4.33,2.88a123.83,123.83,0,0,1-17.56-7.35c-1-.51-1.87-1.15-2.81-1.72A13.81,13.81,0,0,1,71,105.75a50,50,0,0,1-2.6-10,81.52,81.52,0,0,1-1-15.37A5.91,5.91,0,0,0,67.29,79.73ZM57,65.17a7.74,7.74,0,0,0,1,.56,11.83,11.83,0,0,0,2.29.87c1.07.2,1.65-.36,1.63-1.45a11.41,11.41,0,0,0-.28-2.09,6.15,6.15,0,0,0-2-3.49c-1.15-1-2-1-3.09.07a4,4,0,0,0-1.21,4.08,18.18,18.18,0,0,0,5.89,9.15,3.38,3.38,0,0,0,2.63.84c1-.1,2-.27,3-.4.44,0,.91-.26,1.3.16-.44.53-.44.55-.9.65-.81.18-1.62.31-2.42.5-.28.07-.71.19-.78.39a9.09,9.09,0,0,0-.52,2.25,1.12,1.12,0,0,0,.93,1.09,8.79,8.79,0,0,0,1.61.3A26.74,26.74,0,0,0,73.29,78a16.41,16.41,0,0,0,4.84-1.74,5.46,5.46,0,0,0,2.27-2.32,2,2,0,0,0-.24-2.39c-1.9,1.16-1.9,1.16-2.71.76A1.8,1.8,0,0,1,78,72a5.13,5.13,0,0,0,2.25-3.07,21,21,0,0,0,.8-8.6c-.23-2.07-1.08-3-3.18-3.35s-4.19-.64-6.29-.83a5.1,5.1,0,0,0-3.29.68,2,2,0,0,0,0,3.65,5.78,5.78,0,0,0,2,.75c1.38.23,2.79.31,4.19.46.4,0,.88-.16,1.14.4-.31.54-.86.48-1.35.5a15.2,15.2,0,0,1-5.1-.66c-.29-.1-.58-.16-1-.26.09,1.43-.14,2.64-1.45,3.31a3.84,3.84,0,0,1-3.72,0A4.78,4.78,0,0,1,62.74,66,3,3,0,0,1,62,67.15C60.51,68.23,57.47,67.12,57,65.17Zm11.3,14.49c0,1.42,0,2.75,0,4.08a73.89,73.89,0,0,0,1.44,14.14,38.43,38.43,0,0,0,2.8,9.07,11.2,11.2,0,0,0,4.07,4.78A61.32,61.32,0,0,0,82,114.9a154.42,154.42,0,0,0,14.86,6.17,3.69,3.69,0,0,0,.56.19,2.36,2.36,0,0,0,3-2,2.58,2.58,0,0,0-1.4-3.07A31.6,31.6,0,0,0,95,114.43a84.59,84.59,0,0,1-13.75-6.06,10.47,10.47,0,0,1-4.8-5.58A55,55,0,0,1,72.7,80c0-.26,0-.53,0-.86Zm8.55-24c.48-2.94,1-5.72,1.37-8.51.3-2.18.51-4.36.71-6.55a5.15,5.15,0,0,0-.19-1.74,1.3,1.3,0,0,0-1.69-1A2.71,2.71,0,0,0,75,39.31a9.57,9.57,0,0,0-.91,2.4c-.54,2.77-1,5.56-1.46,8.34-.18,1.05-.29,2.1-.5,3.14,0,.25-.35.62-.54.62s-.55-.29-.66-.53a6.72,6.72,0,0,1-.4-1.46c-.48-2.71-.92-5.42-1.43-8.12-.26-1.38-.62-2.75-1-4.11a2.44,2.44,0,0,0-1.38-1.67c-1.32-.57-4.08.18-4.14,2.41a14.72,14.72,0,0,0,0,1.76,106.84,106.84,0,0,0,2,12.06,1.6,1.6,0,0,0,.47.76c.58.57,1.2,1.09,1.84,1.65a5.47,5.47,0,0,1,3.7-1.45,22.26,22.26,0,0,1,2.58.1C74.4,55.31,75.56,55.46,76.89,55.61ZM66.34,58.34c-.11-.43-.1-1-.37-1.27a7.57,7.57,0,0,0-2-1.61,3.24,3.24,0,0,0-4.21.93A1.47,1.47,0,0,0,60,58.62a6.76,6.76,0,0,1,2.5,4,2.13,2.13,0,0,0,1.66,1.74,2.69,2.69,0,0,0,2.75-.84,3,3,0,0,0,0-3A2.51,2.51,0,0,1,66.34,58.34Z"/><path class="cls-2" d="M57,65.17c.43,2,3.47,3.06,4.92,2A3,3,0,0,0,62.74,66,4.78,4.78,0,0,0,63,64.92a3.84,3.84,0,0,0,3.72,0c1.31-.67,1.54-1.88,1.45-3.31.39.1.68.16,1,.26a15.2,15.2,0,0,0,5.1.66c.49,0,1,0,1.35-.5-.26-.56-.74-.35-1.14-.4-1.4-.15-2.81-.23-4.19-.46a5.78,5.78,0,0,1-2-.75,2,2,0,0,1,0-3.65,5.1,5.1,0,0,1,3.29-.68c2.1.19,4.21.45,6.29.83s3,1.28,3.18,3.35a21,21,0,0,1-.8,8.6A5.13,5.13,0,0,1,78,72a1.8,1.8,0,0,0-.56.36c.81.4.81.4,2.71-.76a2,2,0,0,1,.24,2.39,5.46,5.46,0,0,1-2.27,2.32A16.41,16.41,0,0,1,73.29,78a26.74,26.74,0,0,1-7.24.65,8.79,8.79,0,0,1-1.61-.3,1.12,1.12,0,0,1-.93-1.09A9.09,9.09,0,0,1,64,75c.07-.2.5-.32.78-.39.8-.19,1.61-.32,2.42-.5.46-.1.46-.12.9-.65-.39-.42-.86-.21-1.3-.16-1,.13-2,.3-3,.4a3.38,3.38,0,0,1-2.63-.84,18.18,18.18,0,0,1-5.89-9.15,4,4,0,0,1,1.21-4.08c1.12-1,1.94-1.06,3.09-.07a6.15,6.15,0,0,1,2,3.49,11.41,11.41,0,0,1,.28,2.09c0,1.09-.56,1.65-1.63,1.45A11.83,11.83,0,0,1,58,65.73,7.74,7.74,0,0,1,57,65.17ZM70.7,63.52c-.86,0-1.91,1.16-2.57,2.67s-.74,2.32-.11,3.1a30.23,30.23,0,0,1,1.06-3A31.82,31.82,0,0,1,70.7,63.52Zm.81,10.19.06.28a3.89,3.89,0,0,0,3.07-1.07Z"/><path class="cls-3" d="M68.34,79.66l4.37-.54c0,.33,0,.6,0,.86a55,55,0,0,0,3.73,22.81,10.47,10.47,0,0,0,4.8,5.58A84.59,84.59,0,0,0,95,114.43a31.6,31.6,0,0,1,4.09,1.78,2.58,2.58,0,0,1,1.4,3.07,2.36,2.36,0,0,1-3,2,3.69,3.69,0,0,1-.56-.19A154.42,154.42,0,0,1,82,114.9a61.32,61.32,0,0,1-5.36-3.17A11.2,11.2,0,0,1,72.58,107a38.43,38.43,0,0,1-2.8-9.07,73.89,73.89,0,0,1-1.44-14.14C68.33,82.41,68.34,81.08,68.34,79.66Z"/><path class="cls-2" d="M76.89,55.61c-1.33-.15-2.49-.3-3.66-.4a22.26,22.26,0,0,0-2.58-.1A5.47,5.47,0,0,0,67,56.56c-.64-.56-1.26-1.08-1.84-1.65a1.6,1.6,0,0,1-.47-.76,106.84,106.84,0,0,1-2-12.06,14.72,14.72,0,0,1,0-1.76c.06-2.23,2.82-3,4.14-2.41a2.44,2.44,0,0,1,1.38,1.67c.37,1.36.73,2.73,1,4.11.51,2.7,1,5.41,1.43,8.12a6.72,6.72,0,0,0,.4,1.46c.11.24.44.54.66.53s.5-.37.54-.62c.21-1,.32-2.09.5-3.14.47-2.78.92-5.57,1.46-8.34a9.57,9.57,0,0,1,.91-2.4,2.71,2.71,0,0,1,2.11-1.54,1.3,1.3,0,0,1,1.69,1A5.15,5.15,0,0,1,79,40.55c-.2,2.19-.41,4.37-.71,6.55C77.86,49.89,77.37,52.67,76.89,55.61Z"/><path class="cls-2" d="M66.34,58.34a2.51,2.51,0,0,0,.56,2.21,3,3,0,0,1,0,3,2.69,2.69,0,0,1-2.75.84,2.13,2.13,0,0,1-1.66-1.74,6.76,6.76,0,0,0-2.5-4,1.47,1.47,0,0,1-.21-2.23A3.24,3.24,0,0,1,64,55.46a7.57,7.57,0,0,1,2,1.61C66.24,57.36,66.23,57.91,66.34,58.34Z"/><path d="M70.7,63.52a31.82,31.82,0,0,0-1.62,2.81,30.23,30.23,0,0,0-1.06,3c-.63-.78-.58-1.49.11-3.1S69.84,63.57,70.7,63.52Z"/><path d="M71.51,73.71l3.13-.79A3.89,3.89,0,0,1,71.57,74Z"/><path d="M199.81,89.54a81.88,81.88,0,0,1-4.28,14.8,50.85,50.85,0,0,1-4.67,9.22,13.77,13.77,0,0,1-7.08,5.76c-1,.36-2.05.79-3.11,1.09A125.1,125.1,0,0,1,162,123.86c-2.84.34-3.83-1.79-3.62-3.74a3.37,3.37,0,0,1,2.1-2.9,9.49,9.49,0,0,1,2.13-.64c2.17-.38,4.34-.7,6.51-1A67.3,67.3,0,0,0,180.28,113a9,9,0,0,0,4.81-3.59c.22-.33.44-.64.65-1a56,56,0,0,0,8.1-20.93,5.12,5.12,0,0,0,0-.7c-.34-.19-.67-.33-1-.53-1.19-.82-2.42-1.6-3.53-2.51a5.49,5.49,0,0,1-1.88-3.19,2.65,2.65,0,0,1,1-2.93c.15-.11.28-.24.42-.36a12.84,12.84,0,0,1-.3-5,20,20,0,0,1,1.14-5.76c.8-1.94,2.09-3.2,4.34-3.15a3.51,3.51,0,0,0,.72-.11c0-1.33.07-2.62.13-3.91s.11-2.59.23-3.87c.24-2.54.49-5.08.81-7.61a6,6,0,0,1,.75-2.08,2.24,2.24,0,0,1,2.88-.9,3.76,3.76,0,0,1,2.28,2.39,8,8,0,0,1,.46,2.29c0,2.43-.07,4.86-.14,7.29,0,.9-.15,1.81-.23,2.71a.54.54,0,0,0,.42-.33c.72-1.78,1.4-3.58,2.16-5.34s1.48-3.3,2.32-4.89a3.24,3.24,0,0,1,2.71-1.82,4,4,0,0,1,4.26,4.73,9.27,9.27,0,0,1-.37,1.49c-1.4,3.49-2.83,7-4.24,10.46-.11.27-.19.55-.31.9a4.76,4.76,0,0,1,3.3,1.29,3.45,3.45,0,0,1,1,3.27,4.78,4.78,0,0,1,3.11,5.79,8.34,8.34,0,0,1-2,3.81A40.55,40.55,0,0,1,211.34,82c-1.76,1.58-3.61,3-6.17,2.91,0,.56.06,1,.05,1.5-.05,1.86-.81,2.65-2.67,2.68-.81,0-1.63-.11-2.56-.18A6.37,6.37,0,0,0,199.81,89.54Zm8.07-11.78a3,3,0,0,1-.53-1.26,5.26,5.26,0,0,1,0-1.14,3.81,3.81,0,0,1-3.63-.79c-1.14-.93-1.1-2.16-.71-3.54-.41,0-.71,0-1,0a15,15,0,0,1-5.13-.44c-.47-.12-1-.18-1.21-.78.37-.49.8-.18,1.19-.14,1.4.15,2.8.37,4.2.44a5.69,5.69,0,0,0,2.08-.32,2.05,2.05,0,0,0,.77-3.57,5.19,5.19,0,0,0-3.07-1.36c-2.1-.26-4.21-.46-6.32-.53s-3.16.63-3.82,2.6a20.82,20.82,0,0,0-1.05,8.58A5.1,5.1,0,0,0,191.17,79a1.82,1.82,0,0,1,.48.48c-.88.21-.88.21-2.49-1.32a2,2,0,0,0-.75,2.28,5.56,5.56,0,0,0,1.73,2.75A16.22,16.22,0,0,0,194.51,86a26.34,26.34,0,0,0,6.93,2.17,8.16,8.16,0,0,0,1.64,0,1.1,1.1,0,0,0,1.13-.87,9.4,9.4,0,0,0,0-2.31c0-.2-.41-.41-.68-.54-.74-.35-1.5-.66-2.25-1-.43-.2-.42-.22-.75-.84.48-.32.89,0,1.31.13,1,.34,1.9.72,2.87,1a3.32,3.32,0,0,0,2.74-.26,18.17,18.17,0,0,0,7.7-7.68,4,4,0,0,0-.31-4.25c-.87-1.27-1.67-1.45-3-.72a6,6,0,0,0-2.73,3,11.76,11.76,0,0,0-.73,2c-.25,1.06.2,1.73,1.29,1.76a10.73,10.73,0,0,0,2.42-.36,10,10,0,0,0,1.06-.34C212.27,78.68,209.06,79.12,207.88,77.76Zm-13,9.41c-.07.32-.14.58-.18.84a54.8,54.8,0,0,1-8.49,21.5,10.49,10.49,0,0,1-5.88,4.43,83.9,83.9,0,0,1-14.72,3,32.51,32.51,0,0,0-4.37.88,2.56,2.56,0,0,0-2,2.69,2.37,2.37,0,0,0,2.55,2.59,3.68,3.68,0,0,0,.58-.07,151.48,151.48,0,0,0,15.84-2.87,61.89,61.89,0,0,0,5.91-2,11.3,11.3,0,0,0,5-3.81,38.46,38.46,0,0,0,4.66-8.27,74.64,74.64,0,0,0,4.42-13.51c.29-1.3.56-2.59.87-4Zm4.57-23.48a21.59,21.59,0,0,1,2.55.46,5.36,5.36,0,0,1,3.3,2.2c.75-.42,1.46-.8,2.15-1.22a1.59,1.59,0,0,0,.62-.64,108,108,0,0,0,4.55-11.36,12.52,12.52,0,0,0,.41-1.71c.42-2.19-2.12-3.51-3.53-3.24a2.44,2.44,0,0,0-1.7,1.34c-.65,1.25-1.29,2.51-1.84,3.81-1.07,2.53-2.08,5.09-3.12,7.63a6.6,6.6,0,0,1-.71,1.34.91.91,0,0,1-.75.38c-.19,0-.41-.47-.41-.72,0-1.06.14-2.12.19-3.17.13-2.82.29-5.64.35-8.46a9.66,9.66,0,0,0-.38-2.55,2.71,2.71,0,0,0-1.73-1.94,1.3,1.3,0,0,0-1.88.65,4.94,4.94,0,0,0-.56,1.66c-.27,2.18-.53,4.36-.69,6.55-.21,2.81-.32,5.63-.48,8.6C197.08,63.44,198.25,63.54,199.4,63.69Zm5,6.57a3.07,3.07,0,0,0-.64,2.9,2.71,2.71,0,0,0,2.51,1.4,2.15,2.15,0,0,0,2-1.34,6.74,6.74,0,0,1,3.28-3.38,1.46,1.46,0,0,0,.68-2.13,3.23,3.23,0,0,0-3.91-1.81,7.6,7.6,0,0,0-2.27,1.15c-.32.23-.43.77-.63,1.17A2.49,2.49,0,0,1,204.45,70.26Z"/><path class="cls-2" d="M212.05,77.21a10.73,10.73,0,0,1-2.42.36c-1.09,0-1.54-.7-1.29-1.76a11.76,11.76,0,0,1,.73-2,6,6,0,0,1,2.73-3c1.34-.73,2.14-.55,3,.72a4,4,0,0,1,.31,4.25,18.17,18.17,0,0,1-7.7,7.68,3.32,3.32,0,0,1-2.74.26c-1-.31-1.91-.69-2.87-1-.42-.15-.83-.45-1.31-.13.33.62.32.64.75.84.75.34,1.51.65,2.25,1,.27.13.66.34.68.54a9.4,9.4,0,0,1,0,2.31,1.1,1.1,0,0,1-1.13.87,8.16,8.16,0,0,1-1.64,0A26.34,26.34,0,0,1,194.51,86a16.22,16.22,0,0,1-4.37-2.73,5.56,5.56,0,0,1-1.73-2.75,2,2,0,0,1,.75-2.28c1.61,1.53,1.61,1.53,2.49,1.32a1.82,1.82,0,0,0-.48-.48,5.1,5.1,0,0,1-1.54-3.47A20.82,20.82,0,0,1,190.68,67c.66-2,1.68-2.67,3.82-2.6s4.22.27,6.32.53a5.19,5.19,0,0,1,3.07,1.36,2.05,2.05,0,0,1-.77,3.57,5.69,5.69,0,0,1-2.08.32c-1.4-.07-2.8-.29-4.2-.44-.39,0-.82-.35-1.19.14.19.6.74.66,1.21.78a15,15,0,0,0,5.13.44c.29,0,.59,0,1,0-.39,1.38-.43,2.61.71,3.54a3.81,3.81,0,0,0,3.63.79,5.26,5.26,0,0,0,0,1.14,3,3,0,0,0,.53,1.26c1.18,1.36,4.39.92,5.23-.89A10,10,0,0,1,212.05,77.21Zm-11-1.76a29.29,29.29,0,0,1,.4,3.11c.79-.63.89-1.34.55-3s-1.11-2.93-1.93-3.16C200.45,73.39,200.86,74.4,201.1,75.45Zm-6.84,5.25A3.89,3.89,0,0,0,197,82.39l.12-.25Z"/><path class="cls-3" d="M199,88.62l-4.16-1.45c-.07.32-.14.58-.18.84a54.8,54.8,0,0,1-8.49,21.5,10.49,10.49,0,0,1-5.88,4.43,83.9,83.9,0,0,1-14.72,3,32.51,32.51,0,0,0-4.37.88,2.56,2.56,0,0,0-2,2.69,2.37,2.37,0,0,0,2.55,2.59,3.68,3.68,0,0,0,.58-.07,151.48,151.48,0,0,0,15.84-2.87,61.89,61.89,0,0,0,5.91-2,11.3,11.3,0,0,0,5-3.81,38.46,38.46,0,0,0,4.66-8.27,74.64,74.64,0,0,0,4.42-13.51C198.41,91.31,198.68,90,199,88.62Z"/><path class="cls-2" d="M195.74,63.3c1.34.14,2.51.24,3.66.39a21.59,21.59,0,0,1,2.55.46,5.36,5.36,0,0,1,3.3,2.2c.75-.42,1.46-.8,2.15-1.22a1.59,1.59,0,0,0,.62-.64,108,108,0,0,0,4.55-11.36,12.52,12.52,0,0,0,.41-1.71c.42-2.19-2.12-3.51-3.53-3.24a2.44,2.44,0,0,0-1.7,1.34c-.65,1.25-1.29,2.51-1.84,3.81-1.07,2.53-2.08,5.09-3.12,7.63a6.6,6.6,0,0,1-.71,1.34.91.91,0,0,1-.75.38c-.19,0-.41-.47-.41-.72,0-1.06.14-2.12.19-3.17.13-2.82.29-5.64.35-8.46a9.66,9.66,0,0,0-.38-2.55,2.71,2.71,0,0,0-1.73-1.94,1.3,1.3,0,0,0-1.88.65,4.94,4.94,0,0,0-.56,1.66c-.27,2.18-.53,4.36-.69,6.55C196,57.51,195.9,60.33,195.74,63.3Z"/><path class="cls-2" d="M205.47,68.22a2.49,2.49,0,0,1-1,2,3.07,3.07,0,0,0-.64,2.9,2.71,2.71,0,0,0,2.51,1.4,2.15,2.15,0,0,0,2-1.34,6.74,6.74,0,0,1,3.28-3.38,1.46,1.46,0,0,0,.68-2.13,3.23,3.23,0,0,0-3.91-1.81,7.6,7.6,0,0,0-2.27,1.15C205.78,67.28,205.67,67.82,205.47,68.22Z"/><path d="M200.12,72.35c.33,1,.74,2.05,1,3.1a29.29,29.29,0,0,1,.4,3.11c.79-.63.89-1.34.55-3S200.94,72.58,200.12,72.35Z"/><path d="M197.15,82.14l-2.89-1.44A3.89,3.89,0,0,0,197,82.39Z"/><path class="cls-4" d="M181.87,156.51c-.57-1.36-1.13-2.83-1.7-4.07-.9-2-1.81-4-2.6-5.78l-.12-.11c-7.81-17-16.18-34.19-25-51.17l-.34-.68c-.91-1.69-1.81-3.51-2.72-5.32a32,32,0,0,0-4.08-6.22,18.26,18.26,0,0,0-14.37-7,19,19,0,0,0-14.49,6.79,38.82,38.82,0,0,0-4.08,6.23c-.9,1.81-1.81,3.62-2.71,5.32l-.34.68c-8.72,17-17.21,34.18-25,51.16l-.11.23c-.8,1.81-1.7,3.74-2.61,5.77-.56,1.25-1.13,2.61-1.7,4.08a25.38,25.38,0,0,0-1.35,12.22,24.06,24.06,0,0,0,14.71,18.8,23.36,23.36,0,0,0,9.17,1.81,26.27,26.27,0,0,0,2.94-.23,29.82,29.82,0,0,0,11.32-3.85c4.65-2.6,9.06-6.34,14-11.77a59.42,59.42,0,0,0,14,11.77A29.82,29.82,0,0,0,156.06,189a26.45,26.45,0,0,0,2.94.23,23,23,0,0,0,9.17-1.81,24,24,0,0,0,14.72-18.8,21.44,21.44,0,0,0-1-12.11Zm-51.05,5.89c-6.12-7.7-10.08-14.94-11.44-21.06a18.34,18.34,0,0,1-.34-6.9,11.14,11.14,0,0,1,1.81-4.76,12,12,0,0,1,10-5,11.6,11.6,0,0,1,10,5,11.14,11.14,0,0,1,1.81,4.76,18.26,18.26,0,0,1-.34,6.9c-1.36,6-5.32,13.25-11.43,21.06ZM176,167.72A16.79,16.79,0,0,1,165.68,181a17,17,0,0,1-8.6,1.14,22.32,22.32,0,0,1-8.61-2.95c-4.07-2.26-8.15-5.77-12.9-11,7.47-9.17,12-17.54,13.7-25a28.38,28.38,0,0,0,.56-9.62,18.43,18.43,0,0,0-3.05-7.7,19.08,19.08,0,0,0-16-8,19.37,19.37,0,0,0-16,8,18.43,18.43,0,0,0-3,7.7,23.62,23.62,0,0,0,.56,9.62c1.7,7.48,6.34,16,13.7,25.13-4.64,5.21-8.83,8.72-12.9,11a22.46,22.46,0,0,1-8.61,2.94,18.08,18.08,0,0,1-8.6-1.13,16.82,16.82,0,0,1-10.3-13.25,18.64,18.64,0,0,1,1-8.83c.34-1.13.9-2.26,1.47-3.62.79-1.81,1.7-3.74,2.6-5.66l.11-.23c7.82-16.86,16.19-34.07,24.91-50.82l.34-.68c.9-1.7,1.81-3.51,2.72-5.21a24.4,24.4,0,0,1,3.17-5,11.88,11.88,0,0,1,18.11,0,25.28,25.28,0,0,1,3.17,5c.9,1.7,1.81,3.51,2.71,5.21l.34.68c8.61,16.86,17,34.07,24.8,50.94v.11c.9,1.81,1.69,3.85,2.6,5.66.57,1.36,1.13,2.49,1.47,3.62a19,19,0,0,1,.79,8.72Z"/><path class="cls-5" d="M169.4,43.6a32.88,32.88,0,0,1-4.47,4L156.87,54A38.41,38.41,0,0,1,147,35.62c-.57-2.6-.65-5.8,1.51-7.38a4.82,4.82,0,0,1,5.65.34,8.39,8.39,0,0,1,2.81,5.2c.45-3.41,4.12-5.88,7.57-5.57a9.49,9.49,0,0,1,7.62,6.17,6.65,6.65,0,0,1,.5,3,7.16,7.16,0,0,1-.66,2.2A16.29,16.29,0,0,1,169.4,43.6Z"/><path class="cls-5" d="M157,54.25a.23.23,0,0,1-.25,0,38.38,38.38,0,0,1-10-18.54c-.55-2.53-.73-5.91,1.6-7.62a5.16,5.16,0,0,1,5.93.35,8.1,8.1,0,0,1,2.67,4.34,7.07,7.07,0,0,1,4.25-4.26,7.29,7.29,0,0,1,3.33-.5,9.72,9.72,0,0,1,7.82,6.33,6.77,6.77,0,0,1,.52,3.09,7.5,7.5,0,0,1-.68,2.27,16.31,16.31,0,0,1-2.61,4.1,33,33,0,0,1-4.49,4.05L157,54.22ZM149.42,28a3.53,3.53,0,0,0-.81.44c-2.12,1.57-1.94,4.75-1.41,7.14a37.81,37.81,0,0,0,9.68,18.14l7.91-6.28a32.88,32.88,0,0,0,4.44-4,16.28,16.28,0,0,0,2.53-4,6.93,6.93,0,0,0,.64-2.13,6.38,6.38,0,0,0-.49-2.87,9.26,9.26,0,0,0-7.42-6,7,7,0,0,0-3.13.47,6.38,6.38,0,0,0-4.19,4.91.23.23,0,0,1-.23.2.23.23,0,0,1-.23-.2A8.15,8.15,0,0,0,154,28.77,4.84,4.84,0,0,0,149.42,28Z"/><path class="cls-6" d="M115.58,1.89a3.34,3.34,0,0,0-2.44,2.41A3.86,3.86,0,0,0,111.5.73a3.48,3.48,0,0,0-4.09.74,6.71,6.71,0,0,0-1.85,4.62c0,2.94,1.56,5.37,3.09,7.54L111,16.94c1.16-2.14,3.18-3.37,4.77-5.08a14.15,14.15,0,0,0,2-2.8,13.59,13.59,0,0,0,1.44-3.37A3.05,3.05,0,0,0,115.58,1.89Z"/><path class="cls-6" d="M118.38,8.29c-.15.3-.31.6-.46.87a13.46,13.46,0,0,1-2,2.85c-.54.59-1.14,1.12-1.72,1.64a13,13,0,0,0-3,3.39.2.2,0,0,1-.18.12.21.21,0,0,1-.2-.09l-2.32-3.31c-1.67-2.38-3.17-4.76-3.13-7.67a7.05,7.05,0,0,1,1.93-4.79,3.7,3.7,0,0,1,4.35-.76,3.84,3.84,0,0,1,1.71,2.76,3.31,3.31,0,0,1,5.26-.7,3.33,3.33,0,0,1,.8,3.13A10.68,10.68,0,0,1,118.38,8.29ZM111,16.51a14,14,0,0,1,2.92-3.2c.57-.51,1.16-1,1.69-1.61a13.14,13.14,0,0,0,2-2.75l.46-.86a10.43,10.43,0,0,0,1-2.45,2.93,2.93,0,0,0-.68-2.72,3,3,0,0,0-2.64-.81,3.17,3.17,0,0,0-2.26,2.24.22.22,0,0,1-.26.17.23.23,0,0,1-.19-.24A3.6,3.6,0,0,0,111.38.93a3.25,3.25,0,0,0-3.81.7,6.56,6.56,0,0,0-1.78,4.47c-.05,2.77,1.41,5.08,3,7.4Z"/></g></g></svg>