<svg xmlns="http://www.w3.org/2000/svg" viewBox="0 0 247.95 206.98"><defs><style>.cls-1,.cls-6{fill:#fff;}.cls-2,.cls-4{fill:#3b464e;}.cls-3,.cls-5{fill:#ff5a5f;}.cls-3{fill-rule:evenodd;}.cls-4,.cls-5{stroke:#050505;}.cls-4,.cls-5,.cls-6{stroke-miterlimit:10;}.cls-6{stroke:#000;}</style></defs><title>Fichier 5</title><g id="Calque_2" data-name="Calque 2"><g id="Calque_1-2" data-name="Calque 1"><path d="M153.81,199.05a11.07,11.07,0,0,1,9.76-10.68c1.76-.18,3.56,0,5.47,0l1.6-2.85c-.12-.18-.29-.4-.45-.63a4,4,0,0,1,.79-5.77,9.9,9.9,0,0,1,4.24-1.74c.66-.15,1.33-.25,2.17-.4v-1.39l-.75-61.42c0-1.35.09-2.7.05-4a2.28,2.28,0,0,1,1.38-2.18,4,4,0,0,1,2.81-.4,2,2,0,0,1,1.76,2.08c.81,9.3.52,18.63.67,27.94.21,12.6.24,25.21.34,37.81v1.58c1.06.25,2,.43,2.92.69a9,9,0,0,1,1.76.64,3.82,3.82,0,0,1,1.73,5.6c-.06.12-.11.25-.17.4a29.57,29.57,0,0,1,3.52,11.55c.32,2.85-.47,4.44-3,5.82a32.78,32.78,0,0,1-9.58,3.15,39.79,39.79,0,0,1-22.2-2c-1.21-.46-2.36-1.1-3.56-1.59"/><path d="M155.49,200.36c.27.12.52.27.78.39a38.4,38.4,0,0,0,25.53,2.82,34.77,34.77,0,0,0,8.56-3,3.51,3.51,0,0,0,2.15-3.8,30.38,30.38,0,0,0-2.88-10.7,9,9,0,0,0-.6-1c-1.17.16-2.11,1.3-3.56.58.38-.23.6-.38.83-.5a18.29,18.29,0,0,0,1.92-1c2-1.36,1.9-3.69-.26-4.87a10.87,10.87,0,0,0-4.28-1.1c0,1.09,0,2.09,0,3.1a1.73,1.73,0,0,1-1.37,1.94,5.57,5.57,0,0,1-3.82,0,1.33,1.33,0,0,1-1-1.51c0-1.14,0-2.29-.06-3.52a13.11,13.11,0,0,0-5.13,1.43,3.16,3.16,0,0,0-1.76,3,2.89,2.89,0,0,0,2,2.57c.8.33,1.63.59,2.43.94.2.09.31.38.52.64-1.54.69-2.67-.53-4-.58l-1.36,2.48c1.8.7,3.48,1.27,5.09,2a9.67,9.67,0,0,1,4.41,3.24c-.32.13-.44.22-.49.19-.29-.16-.58-.33-.86-.51a25,25,0,0,0-5.9-3,17.76,17.76,0,0,0-9.38-1,10.41,10.41,0,0,0-8.2,9.63"/><path d="M182.59,182.11v-1.47c0-2.22,0-4.44,0-6.66L182,113.15c0-1.15-.13-2.31-.15-3.47a1.2,1.2,0,0,0-1-1.21,2.32,2.32,0,0,0-3.24,2.25q.1,12.09.25,24.19.25,22.74.54,45.47c0,.57.06,1.13.09,1.64C180.25,182.68,180.61,182.69,182.59,182.11Z"/><path class="cls-1" d="M154.77,199.1a10.41,10.41,0,0,1,8.2-9.63,17.76,17.76,0,0,1,9.38,1,25,25,0,0,1,5.9,3c.28.18.57.35.86.51,0,0,.17-.06.49-.19a9.67,9.67,0,0,0-4.41-3.24c-1.61-.75-3.29-1.32-5.09-2l1.36-2.48c1.37,0,2.5,1.27,4,.58-.21-.26-.32-.55-.52-.64-.8-.35-1.63-.61-2.43-.94a2.89,2.89,0,0,1-2-2.57,3.16,3.16,0,0,1,1.76-3,13.11,13.11,0,0,1,5.13-1.43c0,1.23.1,2.38.06,3.52a1.33,1.33,0,0,0,1,1.51,5.57,5.57,0,0,0,3.82,0,1.73,1.73,0,0,0,1.37-1.94c0-1,0-2,0-3.1a10.87,10.87,0,0,1,4.28,1.1c2.16,1.18,2.29,3.51.26,4.87a18.29,18.29,0,0,1-1.92,1c-.23.12-.45.27-.83.5,1.45.72,2.39-.42,3.56-.58a9,9,0,0,1,.6,1,30.38,30.38,0,0,1,2.88,10.7,3.51,3.51,0,0,1-2.15,3.8,34.77,34.77,0,0,1-8.56,3,38.4,38.4,0,0,1-25.53-2.82c-.26-.12-.51-.27-.78-.39"/><path class="cls-2" d="M182.59,182.11c-2,.58-2.34.57-4.12-.09,0-.51-.08-1.07-.09-1.64q-.27-22.74-.54-45.47-.14-12.09-.25-24.19a2.32,2.32,0,0,1,3.24-2.25,1.2,1.2,0,0,1,1,1.21c0,1.16.14,2.32.15,3.47l.57,60.83c0,2.22,0,4.44,0,6.66Z"/><path d="M218.45,173.6c.55.11,1,.18,1.48.3A5.61,5.61,0,0,1,224.4,178a4.3,4.3,0,0,1-.06,2.25,2.93,2.93,0,0,0-.07,1.8c.44,1.53.88,3.06,1.28,4.6a1,1,0,0,0,.87.83c4.43,1.13,6.7,4.24,7.82,8.45a8.07,8.07,0,0,1-4.32,9,24.51,24.51,0,0,1-13.73,1.75,16.17,16.17,0,0,1-9.18-4.84,5.69,5.69,0,0,1-1.71-4.27,65.16,65.16,0,0,1,1.8-14c.08-.37.17-.74.25-1.09a12.08,12.08,0,0,1-1.06-1.41,4.22,4.22,0,0,1,.84-5.06,7.76,7.76,0,0,1,4.18-2.14c.37-.07.75-.12,1.32-.21,0-.59,0-1.16,0-1.72q.26-27.6.51-55.19c0-2.7-.07-5.4-.13-8.1a2.26,2.26,0,0,1,.86-1.91,3.53,3.53,0,0,1,3.69-.44,1.81,1.81,0,0,1,1.23,1.79c0,.68,0,1.35,0,2q-.16,30.78-.34,61.57Zm-10.18,9.26a3.87,3.87,0,0,0-.21.59,75.75,75.75,0,0,0-1.83,14.62,3.43,3.43,0,0,0,.83,2.38,15.17,15.17,0,0,0,7.8,5,19.76,19.76,0,0,0,9.33.16,21,21,0,0,0,5.34-1.71c3.22-1.68,4.58-4,3.7-7.6-1-4-3.24-7-7.52-7.92a20.52,20.52,0,0,0-6.63-.27,9.92,9.92,0,0,0-8.34,5.46c-.17.34-.29.8-.81.55s-.3-.64-.15-1a4,4,0,0,1,.33-.65,10.12,10.12,0,0,1,6.35-4.91,31.81,31.81,0,0,1,4.57-.64c1.14-.1,2.3,0,3.56,0-.41-1.43-.8-2.81-1.21-4.19-.09-.31-.23-.62-.34-.92-.74,0-1.38.78-2.4.1l1.68-.87c1.32-.72,1.6-1.42,1.14-2.87-.64-2-2.45-3.27-5-3.33,0,.71,0,1.43,0,2.14,0,1.41-.51,2.12-1.85,2.31a7.71,7.71,0,0,1-2.71-.12c-1.08-.25-1.29-.66-1.31-1.77,0-.86,0-1.71,0-2.78-.9.27-1.64.45-2.34.72a5.43,5.43,0,0,0-2.56,1.82,2.89,2.89,0,0,0,1.17,4.56,9.41,9.41,0,0,1,1.46.62c.2.1.29.39.44.6C209.86,183.53,209.15,182.87,208.27,182.86Zm9.38-40.18H218V108.92c0-1.62-.95-2.32-2.52-1.85-1.15.34-1.57,1-1.53,2.45.08,2.89.23,5.79.2,8.68-.14,15.17-.34,30.33-.51,45.49q-.08,6.52-.1,13c0,.45,0,1.11.33,1.31a3.13,3.13,0,0,0,3,.07c.94-.33.76-1.11.76-1.82Q217.67,159.49,217.65,142.68Z"/><path class="cls-1" d="M208.27,182.86c.88,0,1.59.67,2.45,0-.15-.21-.24-.5-.44-.6a9.41,9.41,0,0,0-1.46-.62,2.89,2.89,0,0,1-1.17-4.56,5.43,5.43,0,0,1,2.56-1.82c.7-.27,1.44-.45,2.34-.72,0,1.07,0,1.92,0,2.78,0,1.11.23,1.52,1.31,1.77a7.71,7.71,0,0,0,2.71.12c1.34-.19,1.83-.9,1.85-2.31,0-.71,0-1.43,0-2.14,2.58.06,4.39,1.3,5,3.33.46,1.45.18,2.15-1.14,2.87l-1.68.87c1,.68,1.66-.05,2.4-.1.11.3.25.61.34.92.41,1.38.8,2.76,1.21,4.19-1.26,0-2.42-.08-3.56,0a31.81,31.81,0,0,0-4.57.64,10.12,10.12,0,0,0-6.35,4.91,4,4,0,0,0-.33.65c-.15.36-.32.78.15,1s.64-.21.81-.55a9.92,9.92,0,0,1,8.34-5.46,20.52,20.52,0,0,1,6.63.27c4.28.95,6.52,3.88,7.52,7.92.88,3.59-.48,5.92-3.7,7.6a21,21,0,0,1-5.34,1.71,19.76,19.76,0,0,1-9.33-.16,15.17,15.17,0,0,1-7.8-5,3.43,3.43,0,0,1-.83-2.38,75.75,75.75,0,0,1,1.83-14.62A3.87,3.87,0,0,1,208.27,182.86Z"/><path class="cls-2" d="M217.65,142.68q0,16.8,0,33.61c0,.71.18,1.49-.76,1.82a3.13,3.13,0,0,1-3-.07c-.28-.2-.33-.86-.33-1.31q0-6.51.1-13c.17-15.16.37-30.32.51-45.49,0-2.89-.12-5.79-.2-8.68,0-1.41.38-2.11,1.53-2.45,1.57-.47,2.52.23,2.52,1.85v33.76Z"/><path class="cls-3" d="M246.46,80.37c-.56-1.36-1.13-2.83-1.7-4.07-.9-2-1.81-4-2.6-5.78l-.11-.11c-7.81-17-16.19-34.19-25-51.17l-.34-.67c-.91-1.7-1.81-3.51-2.72-5.33A32.74,32.74,0,0,0,209.9,7a18.28,18.28,0,0,0-14.38-7A19,19,0,0,0,181,6.79,38.73,38.73,0,0,0,177,13c-.91,1.81-1.82,3.62-2.72,5.32l-.34.68c-8.72,17-17.21,34.18-25,51.16l-.11.23c-.79,1.81-1.7,3.74-2.6,5.77-.57,1.25-1.14,2.61-1.7,4.08a25.41,25.41,0,0,0-1.36,12.23,24,24,0,0,0,14.72,18.79,23.28,23.28,0,0,0,9.16,1.81,26.63,26.63,0,0,0,2.95-.23A29.93,29.93,0,0,0,181.26,109c4.64-2.6,9.05-6.34,14-11.77a59.39,59.39,0,0,0,14,11.77,29.93,29.93,0,0,0,11.32,3.85,26.63,26.63,0,0,0,2.95.23,23,23,0,0,0,9.17-1.81,24,24,0,0,0,14.71-18.79,21.38,21.38,0,0,0-1-12.12Zm-51.05,5.89C189.3,78.56,185.33,71.32,184,65.2a18.32,18.32,0,0,1-.33-6.9,10.88,10.88,0,0,1,1.81-4.76,12,12,0,0,1,10-5,11.59,11.59,0,0,1,10,5,10.88,10.88,0,0,1,1.81,4.76,18.06,18.06,0,0,1-.34,6.9c-1.36,6-5.32,13.25-11.43,21.06Zm45.17,5.32a16.82,16.82,0,0,1-10.31,13.24,17,17,0,0,1-8.6,1.14,22.22,22.22,0,0,1-8.6-2.95c-4.08-2.26-8.15-5.77-12.91-11,7.47-9.17,12-17.54,13.7-25a28.47,28.47,0,0,0,.57-9.63,18.48,18.48,0,0,0-3.06-7.69,19.07,19.07,0,0,0-16-8,19.34,19.34,0,0,0-16,8,18.22,18.22,0,0,0-3.06,7.69A23.52,23.52,0,0,0,177,67c1.69,7.47,6.34,16,13.69,25.13-4.64,5.2-8.83,8.71-12.9,11a22.36,22.36,0,0,1-8.6,2.94,18.12,18.12,0,0,1-8.61-1.13,16.84,16.84,0,0,1-10.3-13.25,18.76,18.76,0,0,1,1-8.83c.34-1.13.91-2.26,1.47-3.62.79-1.81,1.7-3.73,2.6-5.66l.12-.23c7.81-16.86,16.19-34.07,24.9-50.82l.34-.68c.91-1.7,1.81-3.51,2.72-5.21a24.4,24.4,0,0,1,3.17-5,11.88,11.88,0,0,1,18.11,0,24.4,24.4,0,0,1,3.17,5c.91,1.7,1.81,3.51,2.72,5.21l.34.68c8.6,16.86,17,34.07,24.79,50.94v.11c.9,1.81,1.7,3.85,2.6,5.66.57,1.36,1.13,2.49,1.47,3.62a19.14,19.14,0,0,1,.8,8.72Z"/><path class="cls-1" d="M180.57,28.36a6.65,6.65,0,0,1-.53-2.75h0a9.52,9.52,0,0,1,.41-2.76,3,3,0,0,1,1.11-1.35,7.43,7.43,0,0,1,3.43-.74c-.21,0-.41,0-.62,0h-.27a8.61,8.61,0,0,0-4,.76A3,3,0,0,0,179,22.84a9.52,9.52,0,0,0-.41,2.76h0a6.65,6.65,0,0,0,.53,2.75,3.43,3.43,0,0,0,1.83,1.8,9.88,9.88,0,0,0,3.74.77h0q.34,0,.69,0a10.22,10.22,0,0,1-3-.74A3.43,3.43,0,0,1,180.57,28.36Zm20.13-.28a11.46,11.46,0,0,1-1.18-3.76.31.31,0,0,1,0-.09,1.93,1.93,0,0,1,0-.26v0a2.19,2.19,0,0,1,.39-1.32,3,3,0,0,1,1-.63c.43-.18.89-.33,1.23-.46a13,13,0,0,1,3.63-.79l-.54,0h-.29a12.49,12.49,0,0,0-4.22.81c-.34.13-.8.28-1.23.46a3,3,0,0,0-1,.63,2.19,2.19,0,0,0-.39,1.32v0a1.93,1.93,0,0,0,0,.26.62.62,0,0,1,0,.09,11.46,11.46,0,0,0,1.18,3.76,5.61,5.61,0,0,0,2.09,2,6.11,6.11,0,0,0,3.21.81h0c.24,0,.49,0,.73,0a5.82,5.82,0,0,1-2.52-.78A5.61,5.61,0,0,1,200.7,28.08Z"/><path d="M213.52,21.93l0-2.53L206.6,19h0a18.69,18.69,0,0,0-7.3,1.17,12.54,12.54,0,0,1-3,.79A12.13,12.13,0,0,1,193,21a12.43,12.43,0,0,1-3-.79A18.7,18.7,0,0,0,182.7,19h0l-6.9.37,0,2.63.09,0h0a1.5,1.5,0,0,1,.85,1.48.49.49,0,0,1,0,.12h0s.11,1.2.38,2.6a10.23,10.23,0,0,0,1.28,3.76h0s1.84,2.12,5.94,2.11a14.9,14.9,0,0,0,3.85-.54s3.21-.7,4.85-5.92c.09-.28.21-.85.28-1.14a1.37,1.37,0,0,1,2.65,0c.07.31.2.92.29,1.22,1.64,5.15,4.8,5.83,4.83,5.84a14.9,14.9,0,0,0,3.85.54h0c4.1,0,5.92-2.09,5.93-2.11a10.16,10.16,0,0,0,1.29-3.77c.26-1.4.38-2.6.38-2.6h0v-.12a1.52,1.52,0,0,1,.75-1.43l.1-.05h0l.09,0Zm-28.8,9h0a9.88,9.88,0,0,1-3.74-.77,3.43,3.43,0,0,1-1.83-1.8,6.65,6.65,0,0,1-.53-2.75h0a9.52,9.52,0,0,1,.41-2.76,3,3,0,0,1,1.11-1.35,8.61,8.61,0,0,1,4-.76h.27c.21,0,.41,0,.62,0a7.43,7.43,0,0,0-3.43.74,3,3,0,0,0-1.11,1.35A9.52,9.52,0,0,0,180,25.6h0a6.65,6.65,0,0,0,.53,2.75,3.43,3.43,0,0,0,1.83,1.8,10.22,10.22,0,0,0,3,.74Q185.07,30.93,184.72,30.93Zm19.86,0h0a6.11,6.11,0,0,1-3.21-.81,5.61,5.61,0,0,1-2.09-2,11.46,11.46,0,0,1-1.18-3.76.62.62,0,0,0,0-.09,1.93,1.93,0,0,1,0-.26v0a2.19,2.19,0,0,1,.39-1.32,3,3,0,0,1,1-.63c.43-.18.89-.33,1.23-.46a12.49,12.49,0,0,1,4.22-.81h.29l.54,0a13,13,0,0,0-3.63.79c-.34.13-.8.28-1.23.46a3,3,0,0,0-1,.63A2.19,2.19,0,0,0,199.5,24v0a1.93,1.93,0,0,0,0,.26.31.31,0,0,0,0,.09,11.46,11.46,0,0,0,1.18,3.76,5.61,5.61,0,0,0,2.09,2,5.82,5.82,0,0,0,2.52.78C205.07,30.92,204.82,30.93,204.58,30.93Z"/><path class="cls-4" d="M81.09,113.52a5.27,5.27,0,0,0,.76,0v-1.11c-.39.07-4.29-.37-5.74-5.79l-.06-.26c-.67-3.11-1.67-7.81-5.25-7.81H63.31v2H70.8c1.93,0,2.72,3.73,3.25,6.19l.08.34C75.67,112.87,79.47,113.52,81.09,113.52Z"/><path class="cls-4" d="M42.08,113.52a5,5,0,0,1-.75,0v-1.11c.39.07,4.29-.37,5.74-5.79l.06-.26c.66-3.11,1.67-7.81,5.25-7.81h7.49v2H52.38c-1.93,0-2.73,3.73-3.25,6.19l-.08.34C47.51,112.87,43.71,113.52,42.08,113.52Z"/><path class="cls-5" d="M52.64,99.52a2,2,0,0,0,2,2H68.93a2,2,0,0,0,2-2h0a2,2,0,0,0-2-2H54.67a2,2,0,0,0-2,2Z"/><rect class="cls-6" x="0.5" y="111.7" width="125.55" height="83.78" rx="5.56"/><rect class="cls-6" x="6.28" y="115.55" width="113.99" height="76.06" rx="5.05"/><path class="cls-4" d="M107.8,110.43a6.21,6.21,0,0,1,.43,2.31v82.11a6.35,6.35,0,0,1-.28,1.89h-5.12a6.34,6.34,0,0,1-.29-1.89V112.74a6.21,6.21,0,0,1,.43-2.31Z"/><path class="cls-4" d="M23.58,110.43a6.21,6.21,0,0,1,.43,2.31v82.11a6.68,6.68,0,0,1-.28,1.89H18.61a6.34,6.34,0,0,1-.29-1.89V112.74a6.21,6.21,0,0,1,.43-2.31Z"/></g></g></svg>