<svg xmlns="http://www.w3.org/2000/svg" xmlns:xlink="http://www.w3.org/1999/xlink" viewBox="0 0 218.68 236.09"><defs><style>.cls-1{fill:none;}.cls-2{fill:#ff553e;}.cls-3{fill:#fff;}.cls-4{fill:#3b464e;}.cls-5,.cls-6{fill:#ff5a5f;}.cls-5{fill-rule:evenodd;}.cls-7{fill:#333;}.cls-8{fill:url(#New_Pattern_Swatch_1);}</style><pattern id="New_Pattern_Swatch_1" data-name="New Pattern Swatch 1" width="7000" height="7000" patternTransform="translate(-2541 -4041)" patternUnits="userSpaceOnUse" viewBox="0 0 7000 7000"><rect class="cls-1" width="7000" height="7000"/><rect class="cls-2" width="7000" height="7000"/></pattern></defs><title>Fichier 1</title><g id="Calque_2" data-name="Calque 2"><g id="Calque_1-2" data-name="Calque 1"><path d="M124.54,228.16a11.08,11.08,0,0,1,9.76-10.68c1.77-.18,3.56,0,5.48,0l1.6-2.86-.46-.62a4,4,0,0,1,.79-5.77,10,10,0,0,1,4.25-1.75c.65-.14,1.32-.24,2.16-.39,0-.46,0-.92,0-1.39q-.37-30.72-.74-61.42c0-1.35.08-2.71.05-4.06a2.26,2.26,0,0,1,1.38-2.17,4,4,0,0,1,2.81-.4,2,2,0,0,1,1.75,2.07c.82,9.3.52,18.63.68,27.95.21,12.6.23,25.2.33,37.81,0,.52,0,1,0,1.58,1.07.24,2,.43,2.93.68a10,10,0,0,1,1.76.65A3.82,3.82,0,0,1,160.8,213c-.07.13-.11.26-.18.4a29.64,29.64,0,0,1,3.53,11.55c.32,2.85-.47,4.45-3,5.83a33.14,33.14,0,0,1-9.59,3.15,39.85,39.85,0,0,1-22.19-2c-1.21-.46-2.36-1.1-3.56-1.6"/><path d="M126.23,229.47c.26.11.51.27.77.39a38.41,38.41,0,0,0,25.53,2.81,34.58,34.58,0,0,0,8.57-3,3.48,3.48,0,0,0,2.14-3.8,30.31,30.31,0,0,0-2.87-10.69c-.17-.34-.4-.64-.6-1-1.17.17-2.12,1.3-3.57.59.38-.24.6-.39.83-.51a17.45,17.45,0,0,0,1.93-1c2-1.37,1.9-3.69-.27-4.87a11,11,0,0,0-4.27-1.11c0,1.1,0,2.1,0,3.11a1.73,1.73,0,0,1-1.37,1.94,5.66,5.66,0,0,1-3.83,0,1.35,1.35,0,0,1-1-1.52c0-1.14,0-2.28-.06-3.51a13.16,13.16,0,0,0-5.13,1.43,3.13,3.13,0,0,0-1.75,2.95,2.88,2.88,0,0,0,2,2.56c.8.34,1.63.6,2.42.95.2.09.32.37.53.64-1.55.69-2.67-.53-4-.58l-1.36,2.47c1.79.71,3.48,1.27,5.08,2a9.72,9.72,0,0,1,4.42,3.25c-.33.13-.44.21-.49.19a8.18,8.18,0,0,1-.86-.52,24.86,24.86,0,0,0-5.91-3,17.61,17.61,0,0,0-9.37-1,10.4,10.4,0,0,0-8.21,9.63"/><path d="M153.32,211.22v-1.47c0-2.22,0-4.44,0-6.66q-.27-30.42-.57-60.83c0-1.16-.13-2.31-.15-3.47a1.18,1.18,0,0,0-1-1.21,2.31,2.31,0,0,0-3.23,2.25q.1,12.09.24,24.18.27,22.74.55,45.48c0,.56.06,1.13.09,1.64C151,211.79,151.35,211.8,153.32,211.22Z"/><path class="cls-3" d="M125.5,228.21a10.4,10.4,0,0,1,8.21-9.63,17.61,17.61,0,0,1,9.37,1,24.86,24.86,0,0,1,5.91,3,8.18,8.18,0,0,0,.86.52c.05,0,.16-.06.49-.19a9.72,9.72,0,0,0-4.42-3.25c-1.6-.75-3.29-1.31-5.08-2l1.36-2.47c1.37.05,2.49,1.27,4,.58-.21-.27-.33-.55-.53-.64-.79-.35-1.62-.61-2.42-.95a2.88,2.88,0,0,1-2-2.56,3.13,3.13,0,0,1,1.75-2.95,13.16,13.16,0,0,1,5.13-1.43c0,1.23.1,2.37.06,3.51a1.35,1.35,0,0,0,1,1.52,5.66,5.66,0,0,0,3.83,0,1.73,1.73,0,0,0,1.37-1.94c0-1,0-2,0-3.11a11,11,0,0,1,4.27,1.11c2.17,1.18,2.3,3.5.27,4.87a17.45,17.45,0,0,1-1.93,1c-.23.12-.45.27-.83.51,1.45.71,2.4-.42,3.57-.59.2.33.43.63.6,1a30.31,30.31,0,0,1,2.87,10.69,3.48,3.48,0,0,1-2.14,3.8,34.58,34.58,0,0,1-8.57,3A38.41,38.41,0,0,1,127,229.86c-.26-.12-.51-.28-.77-.39"/><path class="cls-4" d="M153.32,211.22c-2,.58-2.34.57-4.11-.09,0-.51-.09-1.08-.09-1.64q-.28-22.74-.55-45.48-.13-12.09-.24-24.18a2.31,2.31,0,0,1,3.23-2.25,1.18,1.18,0,0,1,1,1.21c0,1.16.14,2.31.15,3.47q.3,30.42.57,60.83c0,2.22,0,4.44,0,6.66Z"/><path d="M189.19,202.7c.55.11,1,.19,1.48.31a5.61,5.61,0,0,1,4.46,4.07,4.3,4.3,0,0,1,0,2.25,2.92,2.92,0,0,0-.07,1.8c.44,1.53.87,3.06,1.27,4.6a1.05,1.05,0,0,0,.88.83c4.42,1.13,6.69,4.23,7.81,8.45a8.09,8.09,0,0,1-4.31,9,24.43,24.43,0,0,1-13.73,1.74,16.09,16.09,0,0,1-9.19-4.83,5.76,5.76,0,0,1-1.7-4.28,65.13,65.13,0,0,1,1.79-14c.08-.37.17-.74.25-1.09a12.05,12.05,0,0,1-1.05-1.42,4.22,4.22,0,0,1,.83-5.06,7.7,7.7,0,0,1,4.19-2.13c.37-.07.75-.12,1.31-.21V201q.27-27.59.51-55.19c0-2.7-.07-5.4-.12-8.1a2.21,2.21,0,0,1,.86-1.9,3.51,3.51,0,0,1,3.69-.44,1.82,1.82,0,0,1,1.23,1.79v2q-.17,30.78-.34,61.56ZM179,212a4.58,4.58,0,0,0-.2.59A75.87,75.87,0,0,0,177,227.18a3.41,3.41,0,0,0,.83,2.37,15.21,15.21,0,0,0,7.81,5,19.85,19.85,0,0,0,9.32.16,21.09,21.09,0,0,0,5.34-1.71c3.22-1.68,4.59-4,3.7-7.61-1-4-3.23-7-7.52-7.91a20.23,20.23,0,0,0-6.63-.28,10,10,0,0,0-8.33,5.46c-.18.35-.3.8-.81.56s-.3-.64-.16-1a6.42,6.42,0,0,1,.33-.64,10.1,10.1,0,0,1,6.36-4.91,31.62,31.62,0,0,1,4.57-.64c1.14-.1,2.3,0,3.56,0-.41-1.43-.81-2.81-1.21-4.19-.09-.32-.23-.62-.34-.92-.75,0-1.38.78-2.4.1.69-.36,1.19-.61,1.67-.88a2,2,0,0,0,1.15-2.86c-.65-2-2.46-3.27-5-3.34,0,.72,0,1.43,0,2.15,0,1.4-.51,2.11-1.86,2.3a7.43,7.43,0,0,1-2.7-.11c-1.09-.25-1.3-.66-1.32-1.78,0-.85,0-1.71,0-2.77-.9.27-1.63.44-2.33.71a5.5,5.5,0,0,0-2.56,1.82,2.9,2.9,0,0,0,1.16,4.57,9.48,9.48,0,0,1,1.47.61c.19.11.29.4.44.61C180.59,212.64,179.89,212,179,212Zm9.39-40.17h.33V138c0-1.63-.95-2.32-2.52-1.85-1.16.34-1.57,1-1.53,2.45.08,2.89.23,5.79.2,8.68q-.23,22.74-.51,45.49-.08,6.52-.11,13c0,.45.05,1.11.33,1.31a3.2,3.2,0,0,0,3,.07c.94-.33.76-1.12.76-1.82Z"/><path class="cls-3" d="M179,212c.89,0,1.59.68,2.46,0-.15-.21-.25-.5-.44-.61a9.48,9.48,0,0,0-1.47-.61,2.9,2.9,0,0,1-1.16-4.57A5.5,5.5,0,0,1,181,204.4c.7-.27,1.43-.44,2.33-.71,0,1.06,0,1.92,0,2.77,0,1.12.23,1.53,1.32,1.78a7.43,7.43,0,0,0,2.7.11c1.35-.19,1.84-.9,1.86-2.3,0-.72,0-1.43,0-2.15,2.58.07,4.39,1.3,5,3.34a2,2,0,0,1-1.15,2.86c-.48.27-1,.52-1.67.88,1,.68,1.65-.06,2.4-.1.11.3.25.6.34.92.4,1.38.8,2.76,1.21,4.19-1.26,0-2.42-.08-3.56,0a31.62,31.62,0,0,0-4.57.64,10.1,10.1,0,0,0-6.36,4.91,6.42,6.42,0,0,0-.33.64c-.14.37-.31.78.16,1s.63-.21.81-.56a10,10,0,0,1,8.33-5.46,20.23,20.23,0,0,1,6.63.28c4.29.94,6.53,3.88,7.52,7.91.89,3.59-.48,5.93-3.7,7.61a21.09,21.09,0,0,1-5.34,1.71,19.85,19.85,0,0,1-9.32-.16,15.21,15.21,0,0,1-7.81-5,3.41,3.41,0,0,1-.83-2.37,75.87,75.87,0,0,1,1.84-14.63A4.58,4.58,0,0,1,179,212Z"/><path class="cls-4" d="M188.39,171.79V205.4c0,.7.18,1.49-.76,1.82a3.2,3.2,0,0,1-3-.07c-.28-.2-.33-.86-.33-1.31q0-6.53.11-13,.25-22.74.51-45.49c0-2.89-.12-5.79-.2-8.68,0-1.42.37-2.11,1.53-2.45,1.57-.47,2.52.22,2.52,1.85v33.76Z"/><path d="M99.2,64.76c.13.22.33.51.48.82a3.5,3.5,0,0,1-.38,3.9,9.48,9.48,0,0,1-3,2.43l-1.47.82c.47,1.78.91,3.53,1.4,5.27a30.78,30.78,0,0,0,3,7.24,23.47,23.47,0,0,0,8,8.2,105,105,0,0,0,10.93,5.71c1.15.55,2.29,1.13,3.41,1.74a5.06,5.06,0,0,1,2.25,2.47,3.81,3.81,0,0,1,.15,2.7,2.38,2.38,0,0,1-2.79,1.72,6.15,6.15,0,0,1-1.34-.35,112.63,112.63,0,0,1-15.37-7c-.18-.1-.36-.22-.55-.32A29,29,0,0,1,90.83,85.36a63.08,63.08,0,0,1-3.48-9.8c-.06-.24-.16-.46-.25-.73-1,0-1.93.14-2.88.11a13.22,13.22,0,0,1-2.73-.32,3,3,0,0,1-2.32-3.88c.06-.24.13-.48.19-.71,0-.06-.09-.16-.14-.17a3.81,3.81,0,0,1-2.79-2.67,53.4,53.4,0,0,1-2.09-5.79q-1.5-5.59-2.7-11.27a31.63,31.63,0,0,1-.46-5.06,5.49,5.49,0,0,1,.94-3.22,2.3,2.3,0,0,1,3.62-.69,2,2,0,0,0,.34.18c.06-1,.08-1.85.18-2.74A2.94,2.94,0,0,1,78.43,36a3.1,3.1,0,0,1,3,.58c.09-.39.17-.72.25-1a4.13,4.13,0,0,1,2-2.74c1.38-.78,2.6-.53,3.92.83a5.3,5.3,0,0,0,.39-.46,3,3,0,0,1,3.45-.85,5.74,5.74,0,0,1,3.23,4.11c.53,2.2,1,4.43,1.36,6.66.34,2,.53,4,.78,6,0,.19.09.39.16.71a7.65,7.65,0,0,1,.77-.85,10.63,10.63,0,0,1,1.88-1.35,2.7,2.7,0,0,1,3.76,1.68,6.66,6.66,0,0,1,.1,3.88c-.18.68-.41,1.35-.65,2-.73,2.07-1.46,4.15-2.23,6.2C100.23,62.46,99.73,63.52,99.2,64.76ZM85.58,51.5l-.36.07c-.14-.38-.3-.74-.4-1.12-1-3.59-1.9-7.19-2.89-10.78a11.9,11.9,0,0,0-.87-2.05,1.64,1.64,0,0,0-1.57-.9,2.13,2.13,0,0,0-2.34,1.85A25.56,25.56,0,0,0,77,42a6.28,6.28,0,0,0,.2,1.78c.8,2.64,1.67,5.26,2.47,7.91A9.16,9.16,0,0,1,80,53.54c0,.17-.11.36-.24.71a5.34,5.34,0,0,1-.42-.75c-.27-.88-.51-1.77-.77-2.65A54.17,54.17,0,0,0,76,43.19a5,5,0,0,0-.78-1.25,1.2,1.2,0,0,0-1.94,0,3.27,3.27,0,0,0-1,2.07,18.31,18.31,0,0,0,0,3.7A80,80,0,0,0,76.84,66,14.24,14.24,0,0,0,78,68.14a2.07,2.07,0,0,0,1.41.88c.5.12.65-.33,1-.52a3.2,3.2,0,0,1,.83-.1,10.76,10.76,0,0,0-.61,1.11,9.86,9.86,0,0,0-.63,2,1.89,1.89,0,0,0,1.33,2.17c1.81.69,3.66.46,5.61.26-.19-.92-.4-1.7-.53-2.5s-.08-1,.64-1.36a13.14,13.14,0,0,1,6.44-1.51,3.91,3.91,0,0,1,1,.2,4.41,4.41,0,0,0,.45,2.9,10.8,10.8,0,0,0,3.34-2.19,2.92,2.92,0,0,0-.36-4.75c-.24-.18-.47-.38-.7-.57.45-.71,1,0,1.56-.3.31-.72.73-1.54,1-2.4.75-2,1.47-4.06,2.19-6.1.27-.77.55-1.53.77-2.32a5.79,5.79,0,0,0,0-3.35,1.92,1.92,0,0,0-2.75-1.31,3.81,3.81,0,0,0-1.85,1.55,27.5,27.5,0,0,0-1.62,3,2.19,2.19,0,0,1-1.73,1.39,16.32,16.32,0,0,0-2.16.56c-2.86.92-4,3.08-3.48,5.51a1.74,1.74,0,0,1-.07.52c-.73-.13-.77-.67-.8-1.13a5,5,0,0,1,2.48-4.94,10.21,10.21,0,0,1,4.6-1.35c1-2.11,1-2.11.77-4.23,0-.14,0-.28,0-.42A93.26,93.26,0,0,0,94,37a9.12,9.12,0,0,0-.92-2.24A3.68,3.68,0,0,0,91,33a2,2,0,0,0-2.09.39,2.1,2.1,0,0,0-.73,2.16c.91,3.87,1.7,7.76,2.52,11.64a10.46,10.46,0,0,1,.17,1.37,2.91,2.91,0,0,1-.19.71,3.2,3.2,0,0,1-.43-.58,14.1,14.1,0,0,1-.43-1.54c-.71-3.29-1.4-6.59-2.12-9.88-.21-.93-.45-1.86-.75-2.77a1.74,1.74,0,0,0-2.63-1.07,3.24,3.24,0,0,0-1.72,2.06,5.45,5.45,0,0,0,0,3.5c1,2.92,1.77,5.91,2.58,8.88a20.72,20.72,0,0,1,.45,2.73A4.59,4.59,0,0,1,85.58,51.5ZM93.2,69.33a15,15,0,0,0-6,1.41c.1.44.17.78.24,1.12a65,65,0,0,0,5,14.74,27,27,0,0,0,10.8,12.1c1.56.91,3.08,1.91,4.72,2.67,4,1.86,8.07,3.62,12.13,5.39a4.3,4.3,0,0,0,1.34.31,1.55,1.55,0,0,0,1.72-1.11,3.78,3.78,0,0,0,.13-1.46,3.9,3.9,0,0,0-2.2-3c-1.21-.66-2.45-1.27-3.7-1.85A104,104,0,0,1,106.44,94a25,25,0,0,1-10.3-13.1,69.05,69.05,0,0,1-2.71-10.49C93.37,70.07,93.29,69.73,93.2,69.33Z"/><path class="cls-3" d="M85.58,51.5a4.59,4.59,0,0,0,.06-.9,20.72,20.72,0,0,0-.45-2.73c-.81-3-1.59-6-2.58-8.88a5.45,5.45,0,0,1,0-3.5,3.24,3.24,0,0,1,1.72-2.06,1.74,1.74,0,0,1,2.63,1.07c.3.91.54,1.84.75,2.77.72,3.29,1.41,6.59,2.12,9.88a14.1,14.1,0,0,0,.43,1.54,3.2,3.2,0,0,0,.43.58,2.91,2.91,0,0,0,.19-.71,10.46,10.46,0,0,0-.17-1.37c-.82-3.88-1.61-7.77-2.52-11.64a2.1,2.1,0,0,1,.73-2.16A2,2,0,0,1,91,33a3.68,3.68,0,0,1,2.08,1.73A9.12,9.12,0,0,1,94,37a93.26,93.26,0,0,1,2,11.84c0,.14,0,.28,0,.42.24,2.12.24,2.12-.77,4.23a10.21,10.21,0,0,0-4.6,1.35,5,5,0,0,0-2.48,4.94c0,.46.07,1,.8,1.13a1.74,1.74,0,0,0,.07-.52c-.47-2.43.62-4.59,3.48-5.51a16.32,16.32,0,0,1,2.16-.56,2.19,2.19,0,0,0,1.73-1.39,27.5,27.5,0,0,1,1.62-3,3.81,3.81,0,0,1,1.85-1.55,1.92,1.92,0,0,1,2.75,1.31,5.79,5.79,0,0,1,0,3.35c-.22.79-.5,1.55-.77,2.32-.72,2-1.44,4.08-2.19,6.1-.32.86-.74,1.68-1,2.4-.59.29-1.11-.41-1.56.3.23.19.46.39.7.57a2.92,2.92,0,0,1,.36,4.75,10.8,10.8,0,0,1-3.34,2.19,4.41,4.41,0,0,1-.45-2.9,3.91,3.91,0,0,0-1-.2A13.14,13.14,0,0,0,87,70.08c-.72.41-.78.51-.64,1.36s.34,1.58.53,2.5c-2,.2-3.8.43-5.61-.26a1.89,1.89,0,0,1-1.33-2.17,9.86,9.86,0,0,1,.63-2,10.76,10.76,0,0,1,.61-1.11,3.2,3.2,0,0,0-.83.1c-.31.19-.46.64-1,.52A2.07,2.07,0,0,1,78,68.14,14.24,14.24,0,0,1,76.84,66a80,80,0,0,1-4.65-18.3,18.31,18.31,0,0,1,0-3.7,3.27,3.27,0,0,1,1-2.07,1.2,1.2,0,0,1,1.94,0A5,5,0,0,1,76,43.19a54.17,54.17,0,0,1,2.55,7.66c.26.88.5,1.77.77,2.65a5.34,5.34,0,0,0,.42.75c.13-.35.26-.54.24-.71a9.16,9.16,0,0,0-.26-1.89c-.8-2.65-1.67-5.27-2.47-7.91A6.28,6.28,0,0,1,77,42a25.56,25.56,0,0,1,.13-3.39,2.13,2.13,0,0,1,2.34-1.85,1.64,1.64,0,0,1,1.57.9,11.9,11.9,0,0,1,.87,2.05c1,3.59,1.93,7.19,2.89,10.78.1.38.26.74.4,1.12Zm-6.84,5.22.14.2a4.65,4.65,0,0,0,.63-.21c.53-.28,1-.61,1.56-.89a37.09,37.09,0,0,1,7.67-2.74c1.08-.3,2.2-.53,3.29-.82a2.88,2.88,0,0,0,.63-.32l-.09-.21a3.94,3.94,0,0,0-.69,0c-2.54.62-5.09,1.19-7.6,1.91a15.06,15.06,0,0,0-4.65,2.25A11.08,11.08,0,0,0,78.74,56.72ZM82.6,67.2l.2.29c.31-.15.62-.28.91-.45a16.74,16.74,0,0,1,5.82-2.17c1.57-.23,3.16-.31,4.73-.48a3.24,3.24,0,0,0,.69-.23,2.41,2.41,0,0,0-2-.43c-1.57.2-3.15.42-4.7.73a13.78,13.78,0,0,0-4.77,2A9.62,9.62,0,0,0,82.6,67.2Z"/><path class="cls-4" d="M93.2,69.33c.09.4.17.74.23,1.08A69.05,69.05,0,0,0,96.14,80.9,25,25,0,0,0,106.44,94a104,104,0,0,0,10.93,5.7c1.25.58,2.49,1.19,3.7,1.85a3.9,3.9,0,0,1,2.2,3,3.78,3.78,0,0,1-.13,1.46,1.55,1.55,0,0,1-1.72,1.11,4.3,4.3,0,0,1-1.34-.31C116,105,112,103.23,108,101.37c-1.64-.76-3.16-1.76-4.72-2.67a27,27,0,0,1-10.8-12.1,65,65,0,0,1-5-14.74c-.07-.34-.14-.68-.24-1.12A15,15,0,0,1,93.2,69.33Z"/><path d="M78.74,56.72a11.08,11.08,0,0,1,.89-.8,15.06,15.06,0,0,1,4.65-2.25c2.51-.72,5.06-1.29,7.6-1.91a3.94,3.94,0,0,1,.69,0l.09.21a2.88,2.88,0,0,1-.63.32c-1.09.29-2.21.52-3.29.82a37.09,37.09,0,0,0-7.67,2.74c-.53.28-1,.61-1.56.89a4.65,4.65,0,0,1-.63.21Z"/><path d="M82.6,67.2a9.62,9.62,0,0,1,.92-.77,13.78,13.78,0,0,1,4.77-2c1.55-.31,3.13-.53,4.7-.73a2.41,2.41,0,0,1,2,.43,3.24,3.24,0,0,1-.69.23c-1.57.17-3.16.25-4.73.48A16.74,16.74,0,0,0,83.71,67c-.29.17-.6.3-.91.45Z"/><path class="cls-5" d="M217.2,109.48c-.57-1.36-1.13-2.83-1.7-4.08-.91-2-1.81-4-2.6-5.77l-.12-.11c-7.81-17-16.19-34.19-25-51.17l-.34-.68c-.91-1.7-1.82-3.51-2.72-5.32a32.09,32.09,0,0,0-4.08-6.23,18.29,18.29,0,0,0-14.37-7,19,19,0,0,0-14.49,6.79,39.2,39.2,0,0,0-4.08,6.22c-.9,1.82-1.81,3.63-2.71,5.33l-.34.67c-8.72,17-17.21,34.19-25,51.17l-.12.23c-.79,1.81-1.69,3.73-2.6,5.77-.56,1.25-1.13,2.6-1.7,4.08a25.51,25.51,0,0,0-1.36,12.22,24.07,24.07,0,0,0,14.72,18.79,23.15,23.15,0,0,0,9.17,1.81,26.26,26.26,0,0,0,2.94-.22A29.82,29.82,0,0,0,152,138.12c4.64-2.6,9.06-6.34,14-11.77a59.42,59.42,0,0,0,14,11.77A29.82,29.82,0,0,0,191.39,142a26.43,26.43,0,0,0,2.94.22,22.78,22.78,0,0,0,9.17-1.81,24,24,0,0,0,14.72-18.79,21.44,21.44,0,0,0-1-12.11Zm-51.06,5.89c-6.11-7.7-10.07-15-11.43-21.06a18.15,18.15,0,0,1-.34-6.9,11.09,11.09,0,0,1,1.81-4.76,12,12,0,0,1,10-5,11.61,11.61,0,0,1,10,5,11.09,11.09,0,0,1,1.81,4.76,18.27,18.27,0,0,1-.34,6.9c-1.36,6-5.32,13.25-11.44,21.06Zm45.17,5.32A16.81,16.81,0,0,1,201,133.93a17.15,17.15,0,0,1-8.6,1.13,22.29,22.29,0,0,1-8.61-2.94c-4.07-2.26-8.15-5.77-12.9-11,7.47-9.17,12-17.55,13.7-25a28.41,28.41,0,0,0,.56-9.62,18.43,18.43,0,0,0-3-7.7,19.1,19.1,0,0,0-16-8,19.38,19.38,0,0,0-16,8,18.43,18.43,0,0,0-3.05,7.7,23.46,23.46,0,0,0,.56,9.62c1.7,7.47,6.34,16,13.7,25.13-4.64,5.21-8.83,8.72-12.91,11a22.22,22.22,0,0,1-8.6,3,18.06,18.06,0,0,1-8.6-1.14A16.79,16.79,0,0,1,121,120.8a18.64,18.64,0,0,1,1-8.83c.34-1.13.9-2.26,1.47-3.62.79-1.81,1.7-3.74,2.6-5.66l.11-.23c7.81-16.87,16.19-34.07,24.91-50.83l.34-.68c.9-1.69,1.81-3.5,2.72-5.2a24.79,24.79,0,0,1,3.16-5,11.89,11.89,0,0,1,18.12,0,25.28,25.28,0,0,1,3.17,5c.9,1.7,1.81,3.51,2.71,5.2l.34.68c8.61,16.87,17,34.08,24.79,50.94v.12c.91,1.81,1.7,3.85,2.61,5.66.56,1.36,1.13,2.49,1.47,3.62a19.24,19.24,0,0,1,.79,8.72Z"/><path class="cls-6" d="M29.25,202.32l2-10.55-2.32,10.49ZM41.72,25.71a12.92,12.92,0,0,1,1.19-3.24A10.41,10.41,0,0,0,41.54,26a10.27,10.27,0,0,0-.08,3.49A12.85,12.85,0,0,1,41.72,25.71ZM29.25,202.32l2-10.55-2.32,10.49ZM41.72,25.71a12.92,12.92,0,0,1,1.19-3.24A10.41,10.41,0,0,0,41.54,26a10.27,10.27,0,0,0-.08,3.49A12.85,12.85,0,0,1,41.72,25.71ZM12.56,214.16l2.25,4.39.19,0ZM9,202.84l9,16.27,2.51.48,8-6.26,1.87-8.45-1.89-.37-.08.32-6-1.32,22.55-102,6,1.33-2.35,10.63L36,179.34l14.48-65.49L54.37,93.4A45.76,45.76,0,0,0,58.21,3.45a45.76,45.76,0,0,0-32,84.14l-3.25,14.74,5.21,1.16-2.57,11.64.15.15,3.56,3.26,6.3,5.43a1.18,1.18,0,0,1-.38,2l-12.34,4.29-.42,2.22L32.3,141a1.18,1.18,0,0,1,.39,1.11,1.21,1.21,0,0,1-.77.9l-12.34,4.29L16.5,163.46l7.65,6.62a1.13,1.13,0,0,1,.39,1.11,1.15,1.15,0,0,1-.77.89l-9.55,3.33L14,176.58l7.66,6.62a1.17,1.17,0,0,1-.39,2l-9.55,3.33ZM39.27,25.58A12.84,12.84,0,0,1,55.68,15.7a13.44,13.44,0,0,1,1.37.22A12.86,12.86,0,1,1,51.5,41c-.33-.08-.67-.16-1-.26h0c-.34,0-.68-.09-1-.16A12.86,12.86,0,0,1,39.27,25.58ZM9.45,188.09l.05-.3h0L6.34,202l.32.62,0-.24Zm19.8,14.23,2-10.55-2.32,10.49ZM42.91,22.47A10.41,10.41,0,0,0,41.54,26a10.27,10.27,0,0,0-.08,3.49,12.83,12.83,0,0,1,1.45-7ZM29.25,202.32l2-10.55-2.32,10.49Z"/><path class="cls-7" d="M17.48,221.38l5.46,1,1.06.2.84-.69,8.05-6.65.64-.53.15-.81L56.33,95.42A48,48,0,0,0,95.27,57.09a48.74,48.74,0,0,0,.86-9.7,48,48,0,0,0-8.31-26.32A47.09,47.09,0,0,0,81.94,14,47.9,47.9,0,0,0,57.09.86a47.86,47.86,0,0,0-27.94,3,48,48,0,0,0-8.08,4.43A48.85,48.85,0,0,0,14,14.19a48.08,48.08,0,0,0,9,74.85L20.4,102.28,20,104.55l2.26.43,3,.57L23.41,115l-.25,1.31,1,.87,8.41,7.26-10.5,3.65-1.25.44-.25,1.31-.43,2.22-.25,1.31,1,.87,8.41,7.26-10.5,3.65-1.25.44-.25,1.31L14.23,163,14,164.34l1,.87,6.18,5.34-7.71,2.68-1.26.44L12,175l-.22,1.18-.25,1.31,1,.87,6.19,5.34L11,186.35l-1.26.44-.19,1,9.63-3a1.19,1.19,0,0,0,.45-2l-7.47-6.83.26-1.17L22,171.7a1.14,1.14,0,0,0,.79-.87,1.16,1.16,0,0,0-.35-1.12L15,162.88l3.54-16L31,142.9a1.17,1.17,0,0,0,.44-2l-9.63-8.82.49-2.21L34.74,126a1.2,1.2,0,0,0,.8-.87,1.18,1.18,0,0,0-.36-1.13l-5.92-5.41-3.59-3.1,0-.16L26.9,109l1-5.28-5.25-1L25.5,87.88A45.76,45.76,0,0,1,56.65,3.13c.53.1,1,.2,1.56.32l1.53.31a45.76,45.76,0,0,1-4.88,90.17l-4.4,19.92-19,99.66-8,6.65-2.94-.57-.2.16L15,218.59l.9,1.63.52.95ZM6.55,203.23,7,204l5.61,10.21-5.9-11.51Z"/><path class="cls-8" d="M20.23,219.75,15,218.59l-2.44-4.43-5.9-11.51,0-.24,2.74-14.32.05-.3,9.63-3a1.19,1.19,0,0,0,.45-2l-7.47-6.83.26-1.17L22,171.7a1.14,1.14,0,0,0,.79-.87,1.16,1.16,0,0,0-.35-1.12L15,162.88l3.54-16L31,142.9a1.17,1.17,0,0,0,.44-2l-9.63-8.82.49-2.21L34.74,126a1.2,1.2,0,0,0,.8-.87,1.18,1.18,0,0,0-.36-1.13l-5.92-5.41,6.3,5.43a1.18,1.18,0,0,1-.38,2l-12.34,4.29-.42,2.22L32.3,141a1.18,1.18,0,0,1,.39,1.11,1.21,1.21,0,0,1-.77.9l-12.34,4.29L16.5,163.46l7.65,6.62a1.13,1.13,0,0,1,.39,1.11,1.15,1.15,0,0,1-.77.89l-9.55,3.33L14,176.58l7.66,6.62a1.17,1.17,0,0,1-.39,2l-9.55,3.33L9,202.84l9,16.27,2.51.48Z"/><path class="cls-8" d="M50.46,113.85,54.37,93.4A45.76,45.76,0,0,0,58.21,3.45l1.53.31a45.76,45.76,0,0,1-4.88,90.17Z"/><path class="cls-7" d="M63.28,34a12.74,12.74,0,0,0,1.25-3.59A12.8,12.8,0,0,0,55.68,15.7a12.86,12.86,0,0,0-12.77,6.77,10.57,10.57,0,0,1,11-4.85,11.27,11.27,0,0,1,1.33.35A10.56,10.56,0,0,1,51,38.51a9.65,9.65,0,0,1-1.06-.15,10.58,10.58,0,0,1-8.46-8.85,12.87,12.87,0,0,0,9,11.27h0A12.88,12.88,0,0,0,63.28,34Z"/><path class="cls-8" d="M39.27,25.58A12.84,12.84,0,0,1,55.68,15.7a12.86,12.86,0,0,0-12.77,6.77h0A10.41,10.41,0,0,0,41.54,26a10.27,10.27,0,0,0-.08,3.49h0a12.87,12.87,0,0,0,9,11.27c-.34,0-.68-.09-1-.16A12.86,12.86,0,0,1,39.27,25.58Z"/><path class="cls-7" d="M28.45,204.51l.49-2.25L27.75,202l7.1-37.19,10-52.15L46.49,104l1.5.28-.06.3L46.31,113l-15,78.78,17.31-78.31,2-10.7.06-.36-6-1.15-2.1,11L27.51,191l-2.07,10.84-.39,2Zm2.63.51L36,179.34l-5.64,25.54Z"/><polygon class="cls-8" points="28.45 204.51 28.94 202.26 29.25 202.32 31.26 191.76 48.57 113.46 35.98 179.34 30.34 204.88 28.45 204.51"/></g></g></svg>