<svg xmlns="http://www.w3.org/2000/svg" viewBox="0 0 214.09 284.48"><defs><style>.cls-1{fill:#fff;}.cls-2{fill:#3b464e;}.cls-3{fill:#ff5a5f;fill-rule:evenodd;}.cls-4{fill:#333;}.cls-5{fill:#4d4d4f;}</style></defs><title>Fichier 7</title><g id="Calque_2" data-name="Calque 2"><g id="Calque_1-2" data-name="Calque 1"><path d="M68.76,276.55a11.08,11.08,0,0,1,9.76-10.68c1.76-.18,3.56,0,5.47,0,.49-.86,1-1.82,1.6-2.86-.12-.17-.28-.4-.45-.62a4,4,0,0,1,.79-5.77,9.88,9.88,0,0,1,4.24-1.74c.66-.15,1.33-.25,2.17-.4,0-.45,0-.92,0-1.39q-.37-30.7-.74-61.42c0-1.35.08-2.71,0-4.06A2.28,2.28,0,0,1,93,185.41a4,4,0,0,1,2.81-.4,2,2,0,0,1,1.75,2.08c.82,9.3.52,18.62.68,27.94.21,12.6.23,25.21.33,37.81,0,.52,0,1,0,1.58,1.06.24,2,.43,2.93.68a9.66,9.66,0,0,1,1.75.65,3.81,3.81,0,0,1,1.73,5.59c-.06.13-.11.26-.17.4a29.62,29.62,0,0,1,3.52,11.55c.33,2.85-.47,4.45-3,5.83a33.14,33.14,0,0,1-9.59,3.15,39.84,39.84,0,0,1-22.19-2c-1.22-.46-2.36-1.1-3.57-1.6"/><path d="M70.45,277.86c.26.12.51.27.77.39a38.35,38.35,0,0,0,25.53,2.81,34.75,34.75,0,0,0,8.56-3,3.51,3.51,0,0,0,2.15-3.8,30.31,30.31,0,0,0-2.87-10.7c-.17-.34-.4-.64-.6-1-1.17.17-2.12,1.3-3.57.59.38-.24.6-.39.83-.51a19.41,19.41,0,0,0,1.93-1c2-1.36,1.89-3.69-.27-4.87a10.78,10.78,0,0,0-4.27-1.1c0,1.09,0,2.09,0,3.1a1.71,1.71,0,0,1-1.36,1.94,5.66,5.66,0,0,1-3.83,0,1.35,1.35,0,0,1-1-1.52c0-1.14,0-2.28-.06-3.51a13.11,13.11,0,0,0-5.13,1.43,3.13,3.13,0,0,0-1.75,2.95,2.85,2.85,0,0,0,2,2.56c.8.34,1.63.6,2.42.95.2.09.32.37.52.64-1.54.69-2.66-.53-4-.58-.46.83-.92,1.66-1.36,2.47,1.79.71,3.48,1.28,5.08,2a9.64,9.64,0,0,1,4.41,3.25c-.32.13-.43.21-.49.19-.29-.16-.58-.33-.86-.52a25.36,25.36,0,0,0-5.9-3,17.82,17.82,0,0,0-9.37-1,10.41,10.41,0,0,0-8.21,9.63"/><path d="M97.54,259.61v-1.47c0-2.22,0-4.44,0-6.66q-.29-30.42-.57-60.83c0-1.16-.13-2.31-.15-3.47a1.19,1.19,0,0,0-1-1.21,2.32,2.32,0,0,0-3.24,2.25q.1,12.09.25,24.19.27,22.72.55,45.47c0,.56.06,1.13.09,1.64C95.2,260.18,95.57,260.19,97.54,259.61Z"/><path class="cls-1" d="M69.72,276.6A10.41,10.41,0,0,1,77.93,267a17.82,17.82,0,0,1,9.37,1,25.36,25.36,0,0,1,5.9,3c.28.19.57.36.86.52.06,0,.17-.06.49-.19a9.64,9.64,0,0,0-4.41-3.25c-1.6-.74-3.29-1.31-5.08-2,.44-.81.9-1.64,1.36-2.47,1.37.05,2.49,1.27,4,.58-.2-.27-.32-.55-.52-.64-.79-.35-1.62-.61-2.42-.95a2.85,2.85,0,0,1-2-2.56,3.13,3.13,0,0,1,1.75-2.95,13.11,13.11,0,0,1,5.13-1.43c0,1.23.1,2.37.06,3.51a1.35,1.35,0,0,0,1,1.52,5.66,5.66,0,0,0,3.83,0,1.71,1.71,0,0,0,1.36-1.94c0-1,0-2,0-3.1a10.78,10.78,0,0,1,4.27,1.1c2.16,1.18,2.3,3.51.27,4.87a19.41,19.41,0,0,1-1.93,1c-.23.12-.45.27-.83.51,1.45.71,2.4-.42,3.57-.59.2.33.43.63.6,1a30.31,30.31,0,0,1,2.87,10.7,3.51,3.51,0,0,1-2.15,3.8,34.75,34.75,0,0,1-8.56,3,38.35,38.35,0,0,1-25.53-2.81c-.26-.12-.51-.27-.77-.39"/><path class="cls-2" d="M97.54,259.61c-2,.58-2.34.57-4.11-.09,0-.51-.09-1.08-.09-1.64q-.28-22.74-.55-45.47-.14-12.1-.25-24.19A2.32,2.32,0,0,1,95.78,186a1.19,1.19,0,0,1,1,1.21c0,1.16.14,2.31.15,3.47q.3,30.42.57,60.83c0,2.22,0,4.44,0,6.66Z"/><path d="M133.41,251.09c.55.12,1,.19,1.47.31a5.61,5.61,0,0,1,4.47,4.07,4.2,4.2,0,0,1-.06,2.25,3.08,3.08,0,0,0-.07,1.8c.44,1.53.88,3.06,1.28,4.6a1.05,1.05,0,0,0,.87.83c4.43,1.13,6.7,4.23,7.82,8.45a8.08,8.08,0,0,1-4.31,9,24.43,24.43,0,0,1-13.73,1.74,16.09,16.09,0,0,1-9.19-4.83,5.74,5.74,0,0,1-1.7-4.27A64.53,64.53,0,0,1,122.05,261c.08-.37.17-.74.25-1.09a12.85,12.85,0,0,1-1-1.41,4.22,4.22,0,0,1,.83-5.06,7.72,7.72,0,0,1,4.19-2.14c.37-.07.74-.12,1.31-.21v-1.72q.26-27.6.51-55.2c0-2.7-.07-5.4-.13-8.1a2.26,2.26,0,0,1,.87-1.9,3.53,3.53,0,0,1,3.69-.44,1.81,1.81,0,0,1,1.22,1.79c0,.68,0,1.35,0,2q-.18,30.78-.34,61.57C133.4,249.76,133.41,250.38,133.41,251.09Zm-10.19,9.26c-.08.24-.17.41-.21.59a76.74,76.74,0,0,0-1.83,14.63,3.41,3.41,0,0,0,.83,2.37,15.18,15.18,0,0,0,7.8,5,19.76,19.76,0,0,0,9.33.16,20.82,20.82,0,0,0,5.34-1.71c3.22-1.68,4.59-4,3.7-7.61-1-4-3.23-7-7.52-7.91a20.8,20.8,0,0,0-6.63-.28A10,10,0,0,0,125.7,271c-.18.35-.3.81-.81.56s-.31-.64-.16-1a5.54,5.54,0,0,1,.33-.64,10.08,10.08,0,0,1,6.35-4.91,32,32,0,0,1,4.57-.64c1.15-.1,2.3,0,3.56,0-.41-1.43-.8-2.81-1.2-4.19-.1-.32-.23-.62-.34-.92-.75.05-1.39.78-2.41.1.7-.36,1.19-.61,1.68-.88,1.32-.71,1.6-1.42,1.14-2.86-.64-2-2.45-3.27-5-3.34,0,.72,0,1.43,0,2.15,0,1.4-.52,2.12-1.86,2.3a7.49,7.49,0,0,1-2.71-.11c-1.08-.25-1.29-.66-1.31-1.78,0-.85,0-1.7,0-2.77-.9.27-1.64.44-2.33.72a5.49,5.49,0,0,0-2.57,1.81,2.91,2.91,0,0,0,1.17,4.57,11.1,11.1,0,0,1,1.47.61c.19.11.29.4.43.61C124.81,261,124.11,260.37,123.22,260.35Zm9.39-40.17h.33V186.42c0-1.62-.95-2.32-2.53-1.85-1.15.34-1.57,1-1.53,2.45.09,2.89.23,5.79.21,8.68q-.22,22.74-.51,45.49-.08,6.52-.11,13c0,.45.05,1.11.33,1.31a3.2,3.2,0,0,0,3,.07c.93-.33.76-1.12.76-1.82Z"/><path class="cls-1" d="M123.22,260.35c.89,0,1.59.68,2.45,0-.14-.21-.24-.5-.43-.61a11.1,11.1,0,0,0-1.47-.61,2.91,2.91,0,0,1-1.17-4.57,5.49,5.49,0,0,1,2.57-1.81c.69-.28,1.43-.45,2.33-.72,0,1.07,0,1.92,0,2.77,0,1.12.23,1.53,1.31,1.78a7.49,7.49,0,0,0,2.71.11c1.34-.18,1.84-.9,1.86-2.3,0-.72,0-1.43,0-2.15,2.58.07,4.39,1.31,5,3.34.46,1.44.18,2.15-1.14,2.86-.49.27-1,.52-1.68.88,1,.68,1.66-.05,2.41-.1.11.3.24.6.34.92.4,1.38.79,2.76,1.2,4.19-1.26,0-2.41-.08-3.56,0a32,32,0,0,0-4.57.64,10.08,10.08,0,0,0-6.35,4.91,5.54,5.54,0,0,0-.33.64c-.15.37-.32.78.16,1s.63-.21.81-.56a10,10,0,0,1,8.33-5.46,20.8,20.8,0,0,1,6.63.28c4.29.95,6.53,3.88,7.52,7.91.89,3.59-.48,5.93-3.7,7.61a20.82,20.82,0,0,1-5.34,1.71,19.76,19.76,0,0,1-9.33-.16,15.18,15.18,0,0,1-7.8-5,3.41,3.41,0,0,1-.83-2.37A76.74,76.74,0,0,1,123,260.94C123.05,260.76,123.14,260.59,123.22,260.35Z"/><path class="cls-2" d="M132.61,220.18v33.61c0,.7.17,1.49-.76,1.82a3.2,3.2,0,0,1-3-.07c-.28-.2-.33-.86-.33-1.31q0-6.51.11-13,.25-22.74.51-45.49c0-2.89-.12-5.79-.21-8.68,0-1.41.38-2.11,1.53-2.45,1.58-.47,2.53.23,2.53,1.85v33.76Z"/><path d="M200.53,117.36c0,.33-.05.57-.05.8q-.06,10.47-.11,20.94c0,.65-.12,1.3-.14,2a2.17,2.17,0,0,1-1.66,2.17,63,63,0,0,1-6.12,1.67,124.89,124.89,0,0,1-14.81,1.75c-3.38.24-6.76.44-10.14.55-2.24.08-4.49,0-6.73-.09a3.7,3.7,0,0,1-3.44-2.33,5.65,5.65,0,0,1-.25-4.29,2,2,0,0,1,2.2-1.53c4.77,0,9.55,0,14.32-.17,4-.15,8.06-.55,12.08-.87,1.91-.16,3.81-.38,5.85-.58a19.11,19.11,0,0,0,.33-1.91c.25-3.58.47-7.17.72-10.75.12-1.87.28-3.74.42-5.61,0-.65.07-1.3.11-2-.51-.15-1-.24-1.43-.42a15.16,15.16,0,0,1-3-1.4c-1.57-1.14-2.29-2.53-1.07-4.65-.29-.32-.59-.69-.93-1a15.77,15.77,0,0,1-4.56-11.16,4.39,4.39,0,0,1,2.72-4.51,32.17,32.17,0,0,1,3.22-1.11c.38-.12.78-.19,1.28-.31,0-1.29,0-2.51,0-3.73.14-2.85.27-5.7.54-8.54a10.56,10.56,0,0,1,.94-3.13,3.05,3.05,0,0,1,2.62-1.77,2.66,2.66,0,0,1,3.11,1.8,18,18,0,0,1,.85,4c.26,3,.37,5.94.56,9.09a5.77,5.77,0,0,1,3.71-1.38,3.31,3.31,0,0,1,2.94,2.21c2.45-1.3,5.15-.86,6,1.92.51.07,1,.12,1.55.21A2,2,0,0,1,214,94.88a4.07,4.07,0,0,1,.13.84,9.46,9.46,0,0,1-2.36,6.64,3,3,0,0,0-.67,1.12,27.4,27.4,0,0,1-3.2,6.71,1.74,1.74,0,0,0-.36,1.35,4.09,4.09,0,0,1-2,4.28,9.4,9.4,0,0,1-4,1.4ZM190.3,92.49a16.67,16.67,0,0,1,2,0,7.51,7.51,0,0,1,1.88.47,2.91,2.91,0,0,1,1.87,2.77,2.79,2.79,0,0,1-1.64,2.64,11.32,11.32,0,0,1-5.69,1.16c-.34,0-.75,0-.83-.59a4,4,0,0,1,.77-.28c.69-.12,1.39-.13,2.06-.3a24.62,24.62,0,0,0,3.14-.94A1.65,1.65,0,0,0,195,95.73a2,2,0,0,0-1.26-1.8,4.2,4.2,0,0,0-1.16-.36,12.43,12.43,0,0,0-7.78,1.56,3,3,0,0,0-1.57,2.73,15.34,15.34,0,0,0,3.07,9.73c1,1.33,2,2.65,3.81,3,.25.06.46.32.68.49a2.16,2.16,0,0,1-1.17.19c-.39,0-.77-.15-1.13-.22-.67,1.37-.56,2.08.42,3a6.85,6.85,0,0,0,3.26,1.6,24.34,24.34,0,0,0,9.35.5,7.61,7.61,0,0,0,3.52-1.3,3.13,3.13,0,0,0,1.49-3c-.53-.11-1,.5-1.55-.1,2.67-2.18,3.85-5.18,5.13-8.39-2.12.25-3.95.25-5.1-1.67-1.77.66-3.06-.13-4.19-1.21-2,.82-3.16.33-3.89-1.64a5.14,5.14,0,0,1-.28-3,18.11,18.11,0,0,0,.28-5.69c-.22-2.76-.25-5.54-.47-8.31a24.43,24.43,0,0,0-.76-4.32c-.31-1.15-1.09-1.49-2.28-1.32a2.16,2.16,0,0,0-1.76,1.36,9.19,9.19,0,0,0-.76,2.68c-.3,3.87-.5,7.74-.73,11.6A4.52,4.52,0,0,0,190.3,92.49Zm3.84,24.75c-.12,1.57-.24,3.06-.34,4.56-.27,4.07-.51,8.14-.8,12.21a28.53,28.53,0,0,1-.42,2.9,1.55,1.55,0,0,1-1.57,1.42c-.86,0-1.7.21-2.55.28-4.39.39-8.77.91-13.17,1.09-5.3.22-10.61.14-15.91.19-.85,0-1.06.11-1.33.94a4.63,4.63,0,0,0,.41,3.89,2.85,2.85,0,0,0,2.45,1.54,84.63,84.63,0,0,0,12.23-.21c4.84-.34,9.66-.85,14.49-1.37a42.87,42.87,0,0,0,9.56-2c2.38-.84,2.2-.46,2.23-3.06.1-7.14.12-14.28.16-21.43a3.72,3.72,0,0,0-.11-.71Zm3.2-21a19.59,19.59,0,0,0,.71,2.79c.5,1.23,1.33,1.39,2.44.62a2.15,2.15,0,0,0,.28-.23,10,10,0,0,0,3.06-7.11A2.26,2.26,0,0,0,202,89.81c-1.43-.22-3.12.55-3.47,1.71C198,93.07,197.71,94.67,197.34,96.23Zm4.27,3.75c1.52,1.21,2.54,1.39,3.86.46a10,10,0,0,0,4.17-6.67,1.91,1.91,0,0,0-1.08-2.14,3.16,3.16,0,0,0-3.26.25,1.22,1.22,0,0,0-.49.76A12.72,12.72,0,0,1,201.61,100Zm9-5.91a13.08,13.08,0,0,1-4.77,7.41c2,1.69,4.37,1.45,5.77-.57a8.28,8.28,0,0,0,1.5-4.69C213.18,94.44,212.61,93.94,210.65,94.07Z"/><path class="cls-1" d="M190.3,92.49a4.52,4.52,0,0,1-.11-.55c.23-3.86.43-7.73.73-11.6a9.19,9.19,0,0,1,.76-2.68,2.16,2.16,0,0,1,1.76-1.36c1.19-.17,2,.17,2.28,1.32a24.43,24.43,0,0,1,.76,4.32c.22,2.77.25,5.55.47,8.31a18.11,18.11,0,0,1-.28,5.69,5.14,5.14,0,0,0,.28,3c.73,2,1.85,2.46,3.89,1.64,1.13,1.08,2.42,1.87,4.19,1.21,1.15,1.92,3,1.92,5.1,1.67-1.28,3.21-2.46,6.21-5.13,8.39.53.6,1,0,1.55.1a3.13,3.13,0,0,1-1.49,3,7.61,7.61,0,0,1-3.52,1.3,24.34,24.34,0,0,1-9.35-.5,6.85,6.85,0,0,1-3.26-1.6c-1-.95-1.09-1.66-.42-3,.36.07.74.18,1.13.22a2.16,2.16,0,0,0,1.17-.19c-.22-.17-.43-.43-.68-.49-1.77-.4-2.79-1.72-3.81-3a15.34,15.34,0,0,1-3.07-9.73,3,3,0,0,1,1.57-2.73,12.43,12.43,0,0,1,7.78-1.56,4.2,4.2,0,0,1,1.16.36,2,2,0,0,1,1.26,1.8,1.65,1.65,0,0,1-1.15,1.71,24.62,24.62,0,0,1-3.14.94c-.67.17-1.37.18-2.06.3a4,4,0,0,0-.77.28c.08.57.49.59.83.59a11.32,11.32,0,0,0,5.69-1.16,2.79,2.79,0,0,0,1.64-2.64A2.91,2.91,0,0,0,194.19,93a7.51,7.51,0,0,0-1.88-.47A16.67,16.67,0,0,0,190.3,92.49Zm10.4,14.09.27-.09c0-1.84-1.1-3.13-2.45-4.25-2-1.69-4.55-2.47-5.85-1.87.16.59.7.46,1.09.55,3.12.78,5.65,2.26,6.76,5.5C200.54,106.49,200.64,106.53,200.7,106.58Zm-7.31,5.23-.1.28a4,4,0,0,0,.8.46c.81.25,1.64.48,2.47.65a13.17,13.17,0,0,0,5.59,0c.4-.09.92-.08,1-.7a38.2,38.2,0,0,1-4.87.25A38.64,38.64,0,0,1,193.39,111.81Z"/><path class="cls-2" d="M194.14,117.24l5.33.27a3.72,3.72,0,0,1,.11.71c0,7.15-.06,14.29-.16,21.43,0,2.6.15,2.22-2.23,3.06a42.87,42.87,0,0,1-9.56,2c-4.83.52-9.65,1-14.49,1.37a84.63,84.63,0,0,1-12.23.21,2.85,2.85,0,0,1-2.45-1.54,4.63,4.63,0,0,1-.41-3.89c.27-.83.48-.94,1.33-.94,5.3,0,10.61,0,15.91-.19,4.4-.18,8.78-.7,13.17-1.09.85-.07,1.69-.23,2.55-.28a1.55,1.55,0,0,0,1.57-1.42A28.53,28.53,0,0,0,193,134c.29-4.07.53-8.14.8-12.21C193.9,120.3,194,118.81,194.14,117.24Z"/><path class="cls-1" d="M197.34,96.23c.37-1.56.68-3.16,1.14-4.71.35-1.16,2-1.93,3.47-1.71a2.26,2.26,0,0,1,1.88,2.49,10,10,0,0,1-3.06,7.11,2.15,2.15,0,0,1-.28.23c-1.11.77-1.94.61-2.44-.62A19.59,19.59,0,0,1,197.34,96.23Z"/><path class="cls-1" d="M201.61,100a12.72,12.72,0,0,0,3.2-7.34,1.22,1.22,0,0,1,.49-.76,3.16,3.16,0,0,1,3.26-.25,1.91,1.91,0,0,1,1.08,2.14,10,10,0,0,1-4.17,6.67C204.15,101.37,203.13,101.19,201.61,100Z"/><path class="cls-1" d="M210.65,94.07c2-.13,2.53.37,2.5,2.15a8.28,8.28,0,0,1-1.5,4.69c-1.4,2-3.79,2.26-5.77.57A13.08,13.08,0,0,0,210.65,94.07Z"/><path d="M200.7,106.58c-.06,0-.16-.09-.18-.16-1.11-3.24-3.64-4.72-6.76-5.5-.39-.09-.93,0-1.09-.55,1.3-.6,3.81.18,5.85,1.87,1.35,1.12,2.44,2.41,2.45,4.25Z"/><path d="M193.39,111.81a38.64,38.64,0,0,0,4.85.9,38.2,38.2,0,0,0,4.87-.25c0,.62-.56.61-1,.7a13.17,13.17,0,0,1-5.59,0c-.83-.17-1.66-.4-2.47-.65a4,4,0,0,1-.8-.46Z"/><path d="M42.63,180.11c0-4-.05-8.08.06-12.12a49.86,49.86,0,0,1,.62-6.56,14.35,14.35,0,0,1,3.1-7.46A29.35,29.35,0,0,1,50,150.5,55.27,55.27,0,0,1,58.66,145a127.63,127.63,0,0,1,14.66-6.73,2.11,2.11,0,0,1,2.9.72,5.78,5.78,0,0,1,1.24,3.87,2.5,2.5,0,0,1-1.7,2.42c-2.73,1.18-5.41,2.46-8.06,3.8a73.22,73.22,0,0,0-10.78,6.8A14.45,14.45,0,0,0,51,164.74a55.5,55.5,0,0,0-.85,14.5c0,.44.12.89.18,1.3,3,.32,4.84,1.34,6.19,3.39a4.62,4.62,0,0,1,.74,3.34,11.56,11.56,0,0,1-.4,1.39L59,190.37a24.49,24.49,0,0,1,5.9,6.92,7.68,7.68,0,0,1,.36,7.34A9.85,9.85,0,0,1,63,208.08a27.3,27.3,0,0,1,.06,3.69c-.31,2.66-1.84,4.77-5.38,4.34-.83-.1-1.65-.31-2.5-.48a4.87,4.87,0,0,1-4.45,2.16,9.32,9.32,0,0,1-4.24-1.07.5.5,0,0,0-.15.05l-.36.23a4,4,0,0,1-4,.45c-.68-.29-1.29-.74-1.94-1.09a2.45,2.45,0,0,0-1-.41,5.94,5.94,0,0,1-4.79-2.76,10.16,10.16,0,0,1-1.94-5.75,29,29,0,0,1,1.2-8.82,45.49,45.49,0,0,1,3.46-8.21,1.42,1.42,0,0,0,.23-1.09,5.15,5.15,0,0,1,2.24-6c1-.73,2.13-1.38,3.29-2.12ZM37.7,190.67c-.18.31-.31.54-.43.78a36.32,36.32,0,0,0-3.68,10,26.12,26.12,0,0,0-.54,5.91,9.65,9.65,0,0,0,1.82,5.36A5.72,5.72,0,0,0,37,214.61a16.73,16.73,0,0,0,1.69.56c-.08-.56-.14-.94-.22-1.52a2.92,2.92,0,0,1,.67.4c.4.45.74.95,1.16,1.38a4.22,4.22,0,0,0,4.83,1.1,3.93,3.93,0,0,0,.42-.29c-.13-.45-.76-.75-.31-1.4l.69.47a7.69,7.69,0,0,0,6.23,1.43,3.29,3.29,0,0,0,2.2-1.57l-.57-.84c.37-.36.63-.08.89,0a8.67,8.67,0,0,0,4,.89,3.18,3.18,0,0,0,3.09-2.17,6.85,6.85,0,0,0,.38-3.87,2.56,2.56,0,0,1,.61-2.12A11.17,11.17,0,0,0,65,202.34a6.83,6.83,0,0,0-1-4.79,24.59,24.59,0,0,0-5.33-6.3c-.78-.66-1.59-1.28-2.38-1.92-.85.66-1.64,1.3-2.47,1.9a1.09,1.09,0,0,1-1.64-.07,3.37,3.37,0,0,0,.6-.29c.89-.69,1.82-1.35,2.64-2.12a3.06,3.06,0,0,0,.65-3.63,5.92,5.92,0,0,0-5.66-3.5c0,.6-.09,1.22-.14,1.84-.31,3.58-3.45,4.57-6,4.1a1.21,1.21,0,0,1-1.05-1.17c-.14-1.12-.33-2.24-.51-3.35,0-.24-.1-.48-.16-.8A15,15,0,0,0,39,184.72a4.16,4.16,0,0,0-1.3,3.25A3.75,3.75,0,0,0,40,191.4c.43.21.84.45,1.26.67-.06.11-.11.23-.17.35A4.45,4.45,0,0,1,37.7,190.67Zm6.26-5c.07,1.07.13,1.1,1.22,1.12.24,0,.49,0,.74,0a3.46,3.46,0,0,0,3.53-3.5,14.78,14.78,0,0,0-.06-2.66,56.26,56.26,0,0,1,.48-14.72A15.87,15.87,0,0,1,56.52,155,84.35,84.35,0,0,1,75.58,144.4a1.29,1.29,0,0,0,.9-1.06,4.87,4.87,0,0,0-1.13-4.06,1.31,1.31,0,0,0-1.79-.41,134.73,134.73,0,0,0-16.07,7.72c-2.38,1.39-4.65,3-6.91,4.56-4.24,3-6.23,7.25-6.64,12.29-.3,3.67-.41,7.36-.62,11.24C43.52,178.21,43.73,181.92,44,185.63Z"/><path class="cls-1" d="M41.23,192.07c-.42-.22-.83-.46-1.26-.67A3.75,3.75,0,0,1,37.69,188a4.16,4.16,0,0,1,1.3-3.25,15,15,0,0,1,3.63-2.48c.06.32.13.56.16.8.18,1.11.37,2.23.51,3.35a1.21,1.21,0,0,0,1.05,1.17c2.53.47,5.67-.52,6-4.1,0-.62.1-1.24.14-1.84a5.92,5.92,0,0,1,5.66,3.5,3.06,3.06,0,0,1-.65,3.63c-.82.77-1.75,1.43-2.64,2.12a3.37,3.37,0,0,1-.6.29,1.09,1.09,0,0,0,1.64.07c.83-.6,1.62-1.24,2.47-1.9.79.64,1.6,1.26,2.38,1.92a24.59,24.59,0,0,1,5.33,6.3,6.83,6.83,0,0,1,1,4.79,11.17,11.17,0,0,1-2.24,4.77,2.56,2.56,0,0,0-.61,2.12,6.85,6.85,0,0,1-.38,3.87,3.18,3.18,0,0,1-3.09,2.17,8.67,8.67,0,0,1-4-.89c-.26-.13-.52-.41-.89,0l.57.84a3.29,3.29,0,0,1-2.2,1.57,7.69,7.69,0,0,1-6.23-1.43l-.69-.47c-.45.65.18.95.31,1.4a3.93,3.93,0,0,1-.42.29,4.22,4.22,0,0,1-4.83-1.1c-.42-.43-.76-.93-1.16-1.38a2.92,2.92,0,0,0-.67-.4c.08.58.14,1,.22,1.52a16.73,16.73,0,0,1-1.69-.56,5.72,5.72,0,0,1-2.14-1.86,9.65,9.65,0,0,1-1.82-5.36,26.12,26.12,0,0,1,.54-5.91,36.32,36.32,0,0,1,3.68-10c.12-.24.25-.47.43-.78a4.45,4.45,0,0,0,3.36,1.75C41.12,192.3,41.17,192.18,41.23,192.07ZM38.49,209.8c0-.07-.26-.31-.34-.29s-.37.22-.39.36.15.32.32.62A3.1,3.1,0,0,0,38.49,209.8ZM44.27,211c.17,0,.31-.18.46-.27-.09-.13-.17-.35-.27-.36a1.41,1.41,0,0,0-.5.21l-.15.25C44,210.88,44.13,211,44.27,211Zm8.71-.51a.65.65,0,0,0-.35-.28c-.05,0-.25.2-.23.26s.18.23.34.4C52.86,210.67,53,210.51,53,210.47Z"/><path class="cls-2" d="M43.32,174.68c.2,3.53.41,7.24.64,10.95.07,1.07.13,1.1,1.22,1.12.24,0,.49,0,.74,0a3.46,3.46,0,0,0,3.53-3.5,14.78,14.78,0,0,0-.06-2.66,56.26,56.26,0,0,1,.48-14.72A15.87,15.87,0,0,1,56.52,155,84.35,84.35,0,0,1,75.58,144.4a1.29,1.29,0,0,0,.9-1.06,4.87,4.87,0,0,0-1.13-4.06,1.31,1.31,0,0,0-1.79-.41,134.73,134.73,0,0,0-16.07,7.72c-2.38,1.39-4.65,3-6.91,4.56-4.24,3-6.23,7.25-6.64,12.29C43.64,167.11,43.53,170.8,43.32,174.68Z"/><path d="M38.08,210.49a3.1,3.1,0,0,0,.41-.69c0-.07-.26-.31-.34-.29s-.37.22-.39.36S37.91,210.19,38.08,210.49Z"/><path d="M43.81,210.81c.16.07.32.19.46.17s.31-.18.46-.27c-.09-.13-.17-.35-.27-.36a1.41,1.41,0,0,0-.5.21Z"/><path d="M52.74,210.85c.12-.18.27-.34.24-.38a.65.65,0,0,0-.35-.28c-.05,0-.25.2-.23.26S52.58,210.68,52.74,210.85Z"/><path class="cls-3" d="M167.84,157.62c-.56-1.36-1.13-2.83-1.7-4.08-.9-2-1.81-4-2.6-5.77l-.11-.12c-7.81-17-16.19-34.18-25-51.16l-.34-.68c-.9-1.7-1.81-3.51-2.72-5.32a32.49,32.49,0,0,0-4.07-6.23,18.28,18.28,0,0,0-14.38-7A19,19,0,0,0,102.41,84a38.73,38.73,0,0,0-4.07,6.23c-.91,1.81-1.81,3.62-2.72,5.32l-.34.68c-8.72,17-17.21,34.19-25,51.17l-.11.22c-.79,1.82-1.7,3.74-2.6,5.78-.57,1.24-1.14,2.6-1.7,4.07a25.41,25.41,0,0,0-1.36,12.23,24.05,24.05,0,0,0,14.72,18.79,23.1,23.1,0,0,0,9.16,1.81,24.42,24.42,0,0,0,2.95-.23,29.91,29.91,0,0,0,11.32-3.84c4.64-2.61,9.06-6.34,14-11.78a59.46,59.46,0,0,0,14,11.78A29.91,29.91,0,0,0,142,190.1a24.42,24.42,0,0,0,2.95.23,22.78,22.78,0,0,0,9.17-1.81,24,24,0,0,0,14.71-18.79,21.35,21.35,0,0,0-1-12.11Zm-51,5.88c-6.11-7.7-10.08-14.94-11.43-21.05a18.2,18.2,0,0,1-.34-6.91,10.84,10.84,0,0,1,1.81-4.75,12,12,0,0,1,10-5,11.59,11.59,0,0,1,10,5,10.84,10.84,0,0,1,1.81,4.75,18.11,18.11,0,0,1-.34,6.91c-1.36,6-5.32,13.24-11.43,21.05ZM162,168.82a16.86,16.86,0,0,1-10.3,13.25,17.18,17.18,0,0,1-8.61,1.13,22.36,22.36,0,0,1-8.6-2.94c-4.08-2.27-8.15-5.78-12.91-11,7.48-9.17,12-17.55,13.7-25a28.43,28.43,0,0,0,.57-9.62,18.52,18.52,0,0,0-3.06-7.7,19.05,19.05,0,0,0-16-8,19.36,19.36,0,0,0-16,8,18.26,18.26,0,0,0-3.06,7.7,23.48,23.48,0,0,0,.57,9.62c1.7,7.47,6.34,16,13.69,25.13-4.64,5.21-8.83,8.72-12.9,11a22.2,22.2,0,0,1-8.6,2.94,18.12,18.12,0,0,1-8.61-1.13,16.83,16.83,0,0,1-10.3-13.24,18.76,18.76,0,0,1,1-8.83c.34-1.14.91-2.27,1.47-3.63.79-1.81,1.7-3.73,2.61-5.66l.11-.22c7.81-16.87,16.19-34.08,24.9-50.83l.34-.68c.91-1.7,1.81-3.51,2.72-5.21a24.83,24.83,0,0,1,3.17-5,11.88,11.88,0,0,1,18.11,0,24.4,24.4,0,0,1,3.17,5c.91,1.7,1.81,3.51,2.72,5.21l.34.68c8.6,16.87,17,34.07,24.79,50.94v.11c.9,1.81,1.7,3.85,2.6,5.66a39,39,0,0,1,1.47,3.63,19.08,19.08,0,0,1,.8,8.71Z"/><path class="cls-1" d="M61.79,95.53c1.25-1.18,3.83-1.78,4.75-.63s-.77,3.68-3,4S60.78,97.14,61.79,95.53Z"/><path class="cls-1" d="M48.37,94.44c1.14-3.82,7.46-5.73,9.32-2.42,2,3.81-4.09,8.69-7.73,6.29A3.73,3.73,0,0,1,48.37,94.44Z"/><path class="cls-1" d="M36.9,80.86c4.26.33,7.4,4.55,4.89,8a7.23,7.23,0,0,1-6.23,2.73C27.83,91.3,27.57,81.61,36.9,80.86Z"/><path class="cls-1" d="M92.93,36.62c3.55,10.71-6.73,18.55-12.88,13.93C81.33,52.88,84.88,54.47,89,53c1.67,19.19-28.23,30.2-36.34,19.39l0,0a10.14,10.14,0,0,0,1.11-2.47c-9.55,12.78-24.38,1.88-22.08-7.07a7.9,7.9,0,0,0-1,5.23c-15.5,4.94-32.5-14.19-20-25.74h0a15.41,15.41,0,0,0,5.47,2.56C2.87,38.28,1.11,21,12.27,17.52c6.65-2.4,15.81,1.27,17.47,7.74A7.22,7.22,0,0,1,30,27l.06.64.06-.63a7.34,7.34,0,0,0,0-1.85c-.3-3.3-2.91-7.21-7.75-9.33C26,9.67,38.05,9.12,41.59,13.41a8.93,8.93,0,0,0-2.41,7.93,13.29,13.29,0,0,1,1.45-3.74c2.72-4.81,12.23-7,18.95.13A10.28,10.28,0,0,0,55,12.09C58.09,8,62.42,7.46,66.49,10.87c-2.81,3.74-2.73,8-1.13,12.46C61.48,4,92.63-.63,96.2,20.75,97.5,28,95,35,87.76,40.11A18.16,18.16,0,0,0,92.93,36.62Z"/><path d="M93.05,36.5a19,19,0,0,0,5.37-16.06c-2.23-20-24.24-19-31.62-10a6.33,6.33,0,0,0-12.34,1.3,11.65,11.65,0,0,0-12.53,1.3C39.26,5.41,23.22,6.78,22,15.69c-17.17-7-27.87,14.7-11.45,26.5A12.7,12.7,0,0,0,4.43,54.77c1.1,10.67,15.64,19.65,26.29,13.39,1.79,10.21,15.67,14.42,21.85,4.25,2.35,5,9.06,6.49,14.67,5.92,15.35-1.22,25.1-14.59,22-25.46,6.59-2.63,8.32-11.12,3.87-16.36Zm-13,14C81.33,52.88,84.88,54.47,89,53c1.67,19.19-28.23,30.2-36.34,19.39l0,0a10.14,10.14,0,0,0,1.11-2.47c-9.55,12.78-24.38,1.88-22.08-7.07a7.9,7.9,0,0,0-1,5.23c-15.5,4.94-32.5-14.19-20-25.74h0a15.41,15.41,0,0,0,5.47,2.56C2.87,38.28,1.11,21,12.27,17.52c6.65-2.4,15.81,1.27,17.47,7.74A7.15,7.15,0,0,1,30,27l.06.64.06-.63a7.34,7.34,0,0,0,0-1.85c-.3-3.3-2.91-7.21-7.75-9.33C26,9.67,38.05,9.12,41.59,13.41a8.93,8.93,0,0,0-2.41,7.93,13.29,13.29,0,0,1,1.45-3.74c2.72-4.81,12.23-7,18.95.13A10.28,10.28,0,0,0,55,12.09C58.09,8,62.42,7.46,66.49,10.87c-2.81,3.74-2.73,8-1.13,12.46C61.48,4,92.63-.63,96.2,20.75,97.5,28,95,35,87.76,40.11a18.16,18.16,0,0,0,5.17-3.49C96.48,47.33,86.2,55.17,80.05,50.55Z"/><path d="M61.79,95.53c1.25-1.18,3.83-1.78,4.75-.63s-.77,3.68-3,4-2.73-1.76-1.72-3.37c-2.1,1.57-1.23,4.79,1.8,4.71,3.73,0,6.15-4.43,3.89-6.31C65.79,92.41,62.68,93.66,61.79,95.53Z"/><path d="M59,91.24c-2.49-4-9.67-2.08-10.63,3.2,1.14-3.82,7.46-5.73,9.32-2.42,2,3.81-4.09,8.69-7.73,6.29a3.73,3.73,0,0,1-1.59-3.87c-1.9,4.69,4.77,7.89,9.27,3.6C59.79,96,60.19,93.18,59,91.24Z"/><path d="M42.91,89.66c2.46-3.91-.32-8.83-6-8.8,4.26.33,7.4,4.55,4.89,8a7.23,7.23,0,0,1-6.23,2.73c-7.73-.34-8-10,1.34-10.78C26.7,80,25.51,92.64,35.48,93.24A8.27,8.27,0,0,0,42.91,89.66Z"/><path class="cls-4" d="M51.73,7.56a9.79,9.79,0,0,1,2-4.68,7.73,7.73,0,0,1,2.07-1.74A8.56,8.56,0,0,1,58.38.19c.23,0,.45-.08.67-.1s.44-.06.66-.07a10,10,0,0,1,1.34,0,8.4,8.4,0,0,1,2.61.6A7,7,0,0,1,65.89,2.1a5.66,5.66,0,0,1,1.38,2.16,8.74,8.74,0,0,0-4.08-2.14,11.29,11.29,0,0,0-4.41,0A8.32,8.32,0,0,0,54.88,4,21.73,21.73,0,0,0,51.73,7.56Z"/><path class="cls-4" d="M5.19,42.9a18.79,18.79,0,0,0-3,7.49,21.57,21.57,0,0,0,.16,7.89,21.79,21.79,0,0,0,2.94,7.33A18.92,18.92,0,0,0,11,71.33a14.17,14.17,0,0,1-7-4.8A18.73,18.73,0,0,1,.39,58.68,18.42,18.42,0,0,1,.65,50,14.06,14.06,0,0,1,5.19,42.9Z"/><path d="M37.74,43.22V30.78a1.33,1.33,0,0,1,1.06-1.44,19.35,19.35,0,0,1,3.54-.65,54.88,54.88,0,0,1,7.8-.29,34.92,34.92,0,0,1,6.45.65c.3.07.6.17.89.26a1.26,1.26,0,0,1,.84,1.18,2.38,2.38,0,0,1,0,.38q0,12.26-.07,24.51c0,.88-.24,1.23-1.11,1.4a29.28,29.28,0,0,1-3,.42,56.38,56.38,0,0,1-7.24.19c-1.93-.06-3.86-.21-5.79-.35-.74,0-1.48-.18-2.22-.28a2.42,2.42,0,0,1-.36-.1c-.64-.21-.75-.37-.75-1q0-6.19-.08-12.4Zm20.07-13a2.19,2.19,0,0,0-1.21-.56,29.52,29.52,0,0,0-3.09-.46c-1.8-.13-3.61-.21-5.42-.24a43.74,43.74,0,0,0-7.41.5,16.08,16.08,0,0,0-1.83.39c-.5.13-.6.32-.6.84v.47q0,12.08-.07,24.14c0,.13,0,.25,0,.38a.33.33,0,0,0,.23.36,5.53,5.53,0,0,0,.93.29,59.47,59.47,0,0,0,6.38.55,65.65,65.65,0,0,0,9-.19c.8-.07,1.6-.2,2.4-.35.65-.13.8-.38.79-1q0-11.65-.07-23.3Z"/><path class="cls-5" d="M57.5,42.64h0v11.6c0,.7,0,.73-.76.66a75.48,75.48,0,0,0-9-.33c-2.54,0-5.08.14-7.62.22-.35,0-.69.07-1,.07s-.46-.09-.47-.47,0-.56,0-.84l0-22.36c0-.7,0-.74.67-.88a31,31,0,0,1,3.17-.59c1.57-.17,3.16-.27,4.75-.34a36.54,36.54,0,0,1,5.23.2,43,43,0,0,1,4.53.65c.55.11.55.12.55.66,0,3.53,0,7,0,10.58Z"/><path d="M57.5,42.64v11.6c0,.7,0,.73-.76.66a75.48,75.48,0,0,0-9-.33c-2.54,0-5.08.14-7.62.22-.35,0-.69.07-1,.07s-.46-.09-.47-.47,0-.56,0-.84l0-22.36c0-.7,0-.74.67-.88a31,31,0,0,1,3.17-.59c1.57-.17,3.16-.27,4.75-.34a36.54,36.54,0,0,1,5.23.2,43,43,0,0,1,4.53.65c.55.11.55.12.55.66,0,3.53,0,7,0,10.58v1.17Zm-.45-11.93-.29-.09a43.59,43.59,0,0,0-6.44-.8,44.07,44.07,0,0,0-9.6.45c-.57.09-1.12.24-1.71.37V54.48q4.49-.34,9-.36a79,79,0,0,1,9.07.36Z"/><path d="M57.47,55.64a127.12,127.12,0,0,0-18.82,0c.07-.07.13-.17.2-.18A11,11,0,0,1,40,55.28c4.13-.24,8.26-.4,12.39-.24,1.45.06,2.9.14,4.34.22a2.36,2.36,0,0,1,.6.11c.07,0,.12.1.18.15Z"/><path d="M48.11,56.45h-.85c-.28,0-.39-.13-.39-.36s.08-.38.35-.4c.61,0,1.22,0,1.82,0a.38.38,0,0,1,.39.28c.07.25,0,.4-.26.44s-.71.06-1.06.09Z"/><path class="cls-1" d="M57.05,30.71V54.48A79,79,0,0,0,48,54.12q-4.48,0-9,.36V30.64c.59-.13,1.14-.28,1.71-.37a44.07,44.07,0,0,1,9.6-.45,43.59,43.59,0,0,1,6.44.8Z"/><path class="cls-3" d="M51.4,43.06l-.1-.24-.16-.35h0c-.47-1-1-2.05-1.5-3.08l0,0c0-.1-.11-.21-.16-.32a2,2,0,0,0-.25-.37,1.1,1.1,0,0,0-.86-.42,1.13,1.13,0,0,0-.87.41,2,2,0,0,0-.25.37c0,.11-.11.22-.16.32l0,0c-.53,1-1,2.06-1.51,3.08h0c-.05.11-.11.23-.16.35l-.1.24a1.46,1.46,0,0,0-.08.74,1.43,1.43,0,0,0,.88,1.13,1.5,1.5,0,0,0,.55.11l.18,0a1.72,1.72,0,0,0,.68-.23,3.23,3.23,0,0,0,.84-.71,3.43,3.43,0,0,0,.85.71,1.62,1.62,0,0,0,.68.23L50,45a1.45,1.45,0,0,0,1.43-1.24,1.23,1.23,0,0,0-.06-.73Zm-3.07.35a3.26,3.26,0,0,1-.69-1.26,1.22,1.22,0,0,1,0-.42.78.78,0,0,1,.11-.28.71.71,0,0,1,.6-.3.7.7,0,0,1,.6.3.78.78,0,0,1,.11.28,1.21,1.21,0,0,1,0,.42,3.4,3.4,0,0,1-.69,1.26Zm2.72.32a1,1,0,0,1-1.14.87,1.41,1.41,0,0,1-.52-.18,3.08,3.08,0,0,1-.77-.66,3.76,3.76,0,0,0,.82-1.5,1.65,1.65,0,0,0,0-.58.93.93,0,0,0-.18-.46,1.14,1.14,0,0,0-1-.49,1.17,1.17,0,0,0-1,.49,1,1,0,0,0-.18.46,1.45,1.45,0,0,0,0,.58A3.92,3.92,0,0,0,48,43.77a3.12,3.12,0,0,1-.77.66,1.41,1.41,0,0,1-.52.18,1.13,1.13,0,0,1-.52-.07,1,1,0,0,1-.62-.8,1.11,1.11,0,0,1,.07-.53c0-.07,0-.14.08-.22s.11-.22.16-.34h0c.47-1,1-2,1.5-3.06l0,0c0-.1.1-.21.16-.31a1.17,1.17,0,0,1,.19-.3.71.71,0,0,1,.54-.25.73.73,0,0,1,.55.25,2.2,2.2,0,0,1,.19.3l.16.31,0,0c.52,1,1,2.05,1.49,3.07h0c.06.11.11.23.16.34s.07.15.09.22a1.34,1.34,0,0,1,0,.52Z"/></g></g></svg>